<svg width="93" height="40" viewBox="0 0 93 40" fill="none" xmlns="http://www.w3.org/2000/svg">
<path d="M7.92361 34.0666C7.75056 34.5858 7.60223 35.0802 7.42917 35.5252C7.25612 35.9702 7.08307 36.4152 6.91002 36.8355H6.34141C6.14364 36.2421 5.94586 35.5994 5.79753 34.9319C5.6492 34.2644 5.50087 33.5474 5.35254 32.7563H5.94586C5.99531 33.053 6.06947 33.3744 6.11892 33.6711C6.16836 33.9677 6.24253 34.2644 6.29197 34.561C6.36614 34.8577 6.41558 35.1296 6.48975 35.4016C6.56391 35.6735 6.61335 35.9207 6.68752 36.1432C6.83585 35.723 7.0089 35.278 7.18196 34.7835C7.35501 34.2891 7.52806 33.7699 7.67639 33.2508H8.17083C8.31916 33.7699 8.49221 34.2891 8.66527 34.7835C8.83832 35.278 9.01138 35.723 9.18443 36.1432C9.25859 35.9207 9.30804 35.6735 9.38221 35.4263C9.45637 35.1544 9.50581 34.8824 9.57998 34.5858C9.62942 34.2891 9.70359 33.9924 9.75304 33.6958C9.80248 33.3991 9.87664 33.0777 9.92608 32.7811H10.5194C10.3711 33.5722 10.2227 34.2891 10.0744 34.9566C9.92609 35.6241 9.72831 36.2668 9.53053 36.8602H8.96193C8.78888 36.4399 8.61583 35.9949 8.44277 35.5499C8.245 35.1049 8.07194 34.6105 7.92361 34.0666Z" fill="#BABABA"/>
<path d="M11.1622 32.7563H11.7308V36.8355H11.1622V32.7563Z" fill="#BABABA"/>
<path d="M14.7469 35.13C14.821 35.2041 14.8952 35.303 14.9941 35.4513C15.093 35.5997 15.1919 35.7233 15.2907 35.8716C15.3896 36.0199 15.4885 36.193 15.5874 36.3661C15.6863 36.5391 15.7852 36.6874 15.8346 36.8605H15.2166C15.1424 36.7122 15.0435 36.5638 14.9694 36.4155C14.8705 36.2672 14.7716 36.1188 14.6974 35.9705C14.5985 35.8222 14.4996 35.6986 14.4255 35.575C14.3266 35.4513 14.2524 35.3525 14.1783 35.2536C14.1288 35.2536 14.0794 35.2536 14.0299 35.2536C13.9805 35.2536 13.931 35.2536 13.8569 35.2536H13.3377V36.8605H12.7691V32.8308C12.9422 32.7814 13.1152 32.7567 13.313 32.7567C13.5108 32.7319 13.6838 32.7319 13.8569 32.7319C14.4255 32.7319 14.8705 32.8308 15.1671 33.0533C15.4638 33.2758 15.6121 33.5972 15.6121 34.0175C15.6121 34.2894 15.538 34.5119 15.3896 34.7097C15.2413 34.9075 15.0188 35.0558 14.7469 35.13ZM13.8816 33.2264C13.6344 33.2264 13.4613 33.2264 13.313 33.2511V34.7838H13.7085C13.9063 34.7838 14.0794 34.7838 14.2277 34.7591C14.376 34.7344 14.5244 34.7097 14.6232 34.6355C14.7221 34.5861 14.821 34.5119 14.8705 34.413C14.9199 34.3141 14.9694 34.1905 14.9694 34.0175C14.9694 33.8691 14.9446 33.7455 14.8705 33.6219C14.821 33.523 14.7221 33.4489 14.6232 33.3747C14.5244 33.3253 14.4008 33.2758 14.2771 33.2511C14.1535 33.2264 14.0299 33.2264 13.8816 33.2264Z" fill="#BABABA"/>
<path d="M18.9001 32.7318C19.4687 32.7318 19.9137 32.8306 20.2351 33.0531C20.5318 33.2756 20.7048 33.597 20.7048 34.0173C20.7048 34.2645 20.6554 34.4623 20.5812 34.6106C20.5071 34.7837 20.3835 34.9073 20.2104 35.0062C20.0621 35.1051 19.8643 35.1792 19.6418 35.2287C19.4193 35.2781 19.1474 35.3028 18.8754 35.3028H18.4304V36.8109H17.8618V32.7812C18.0349 32.7318 18.2079 32.707 18.4057 32.707C18.554 32.7318 18.7271 32.7318 18.9001 32.7318ZM18.9496 33.2262C18.7024 33.2262 18.5293 33.2262 18.381 33.2509V34.8578H18.8012C18.999 34.8578 19.1721 34.8331 19.3204 34.8084C19.4687 34.7837 19.6171 34.7342 19.716 34.6848C19.8148 34.6353 19.9137 34.5365 19.9632 34.4376C20.0126 34.3387 20.0621 34.1903 20.0621 34.042C20.0621 33.8937 20.0373 33.7453 19.9632 33.6465C19.9137 33.5476 19.8148 33.4734 19.716 33.3992C19.6171 33.3498 19.4935 33.3004 19.3451 33.2756C19.1968 33.2509 19.0979 33.2262 18.9496 33.2262Z" fill="#BABABA"/>
<path d="M21.397 36.8604V32.7812H23.8692V33.2757H21.9656V34.5118H23.6467V35.0062H21.9656V36.8851H21.397V36.8604Z" fill="#BABABA"/>
<path d="M27.0336 36.3659V36.8604H24.5862V32.7812H25.1548V36.3659H27.0336Z" fill="#BABABA"/>
<path d="M30.5194 36.8604C30.4452 36.6873 30.3958 36.5143 30.3216 36.3412C30.2722 36.1682 30.198 35.9951 30.1486 35.8221H28.2944L27.9236 36.8604H27.3303C27.4786 36.4401 27.6269 36.0198 27.7753 35.649C27.9236 35.2782 28.0472 34.9321 28.1708 34.6107C28.2944 34.2893 28.4427 33.9679 28.5664 33.6712C28.69 33.3746 28.8383 33.0779 28.9619 32.7812H29.4811C29.6294 33.0779 29.753 33.3746 29.8766 33.6712C30.0002 33.9679 30.1486 34.2893 30.2722 34.6107C30.3958 34.9321 30.5441 35.2782 30.6677 35.649C30.8161 36.0198 30.9644 36.4154 31.1127 36.8604H30.5194ZM29.9755 35.3276C29.8519 34.9815 29.7283 34.6601 29.6047 34.3387C29.4811 34.0174 29.3575 33.7207 29.2091 33.424C29.0608 33.7207 28.9372 34.0174 28.8136 34.3387C28.69 34.6601 28.5664 34.9815 28.4427 35.3276H29.9755Z" fill="#BABABA"/>
<path d="M34.4996 36.8604C34.4255 36.712 34.3019 36.5637 34.203 36.3659C34.1041 36.1682 33.9805 35.9951 33.8321 35.7973C33.6838 35.5996 33.5602 35.4018 33.4366 35.204C33.2883 35.0062 33.1646 34.8084 33.0163 34.6354C32.868 34.4376 32.7444 34.2646 32.6208 34.1162C32.4972 33.9679 32.3736 33.7949 32.2499 33.6712V36.8604H31.6813V32.7812H32.1263C32.2994 32.979 32.4972 33.2015 32.7197 33.4735C32.9422 33.7454 33.1399 33.9926 33.3377 34.2893C33.5355 34.5612 33.7332 34.8332 33.931 35.1051C34.1041 35.3771 34.2771 35.5996 34.4007 35.8221V32.806H34.9693V36.8851H34.4996V36.8604Z" fill="#BABABA"/>
<path d="M38.5788 33.2262C38.4799 33.3251 38.381 33.4487 38.2574 33.5971C38.1338 33.7454 38.0102 33.8937 37.8865 34.0668C37.7629 34.2398 37.6146 34.4376 37.4663 34.6107C37.3179 34.8085 37.1943 35.0062 37.046 35.204C36.9224 35.4018 36.7741 35.5996 36.6504 35.7973C36.5268 35.9951 36.4279 36.1929 36.3291 36.3659H38.6282V36.8604H35.6616V36.4648C35.7357 36.3165 35.8346 36.1434 35.9582 35.9457C36.0818 35.7479 36.1807 35.5748 36.3291 35.3771C36.4527 35.1793 36.601 34.9815 36.7246 34.7837C36.8729 34.586 36.9965 34.3882 37.1449 34.2151C37.2685 34.0421 37.4168 33.869 37.5404 33.696C37.664 33.5229 37.7877 33.3993 37.8865 33.2757H35.7852V32.7812H38.5788V33.2262Z" fill="#BABABA"/>
<path d="M39.3698 36.8604V32.7812H41.8668V33.2757H39.9384V34.4871H41.6443V34.9568H39.9384V36.3659H42.0151V36.8604H39.3698Z" fill="#BABABA"/>
<path d="M45.5503 36.8604C45.4761 36.712 45.3525 36.5637 45.2536 36.3659C45.1548 36.1682 45.0311 35.9951 44.8828 35.7973C44.7345 35.5996 44.6109 35.4018 44.4873 35.204C44.3389 35.0062 44.2153 34.8084 44.067 34.6354C43.9187 34.4376 43.7951 34.2646 43.6714 34.1162C43.5478 33.9679 43.4242 33.7949 43.3006 33.6712V36.8604H42.732V32.7812H43.177C43.3501 32.979 43.5478 33.2015 43.7703 33.4735C43.9928 33.7454 44.1906 33.9926 44.3884 34.2893C44.5862 34.5612 44.7839 34.8332 44.9817 35.1051C45.1548 35.3771 45.3278 35.5996 45.4514 35.8221V32.806H46.02V36.8851H45.5503V36.8604Z" fill="#BABABA"/>
<path d="M51.7061 32.7563C51.5577 33.2013 51.4094 33.5969 51.2858 33.9677C51.1622 34.3385 51.0138 34.6846 50.8902 35.006C50.7666 35.3274 50.643 35.6488 50.4947 35.9455C50.3711 36.2421 50.2475 36.5388 50.0991 36.8355H49.5553C49.4316 36.5388 49.2833 36.2421 49.1597 35.9455C49.0361 35.6488 48.9125 35.3274 48.7642 35.006C48.6405 34.6846 48.4922 34.3385 48.3686 33.9677C48.245 33.5969 48.0967 33.2013 47.9483 32.7563H48.5911C48.8136 33.3744 49.0114 33.9677 49.2091 34.561C49.4069 35.1296 49.6294 35.6735 49.8519 36.168C50.0744 35.6735 50.2722 35.1296 50.4947 34.561C50.6925 33.9924 50.915 33.3744 51.1127 32.7563H51.7061Z" fill="#BABABA"/>
<path d="M52.2747 36.8604V32.7812H54.7716V33.2757H52.8433V34.4871H54.5491V34.9568H52.8433V36.3659H54.9199V36.8604H52.2747Z" fill="#BABABA"/>
<path d="M57.6393 35.13C57.7135 35.2041 57.7876 35.303 57.8865 35.4513C57.9854 35.5997 58.0843 35.7233 58.1832 35.8716C58.2821 36.0199 58.381 36.193 58.4799 36.3661C58.5787 36.5391 58.6776 36.6874 58.7271 36.8605H58.109C58.0349 36.7122 57.936 36.5638 57.8618 36.4155C57.7629 36.2672 57.664 36.1188 57.5899 35.9705C57.5157 35.8222 57.3921 35.6986 57.3179 35.575C57.219 35.4513 57.1449 35.3525 57.0707 35.2536C57.0213 35.2536 56.9718 35.2536 56.9224 35.2536C56.8729 35.2536 56.8235 35.2536 56.7493 35.2536H56.2302V36.8605H55.6616V32.8308C55.8346 32.7814 56.0077 32.7567 56.2054 32.7567C56.4032 32.7319 56.5763 32.7319 56.7493 32.7319C57.3179 32.7319 57.7629 32.8308 58.0596 33.0533C58.3562 33.2758 58.5046 33.5972 58.5046 34.0175C58.5046 34.2894 58.4304 34.5119 58.2821 34.7097C58.1337 34.9075 57.9112 35.0558 57.6393 35.13ZM56.774 33.2264C56.5268 33.2264 56.3538 33.2264 56.2054 33.2511V34.7838H56.601C56.7988 34.7838 56.9718 34.7838 57.1201 34.7591C57.2685 34.7344 57.4168 34.7097 57.5157 34.6355C57.6146 34.5861 57.7135 34.5119 57.7629 34.413C57.8124 34.3141 57.8618 34.1905 57.8618 34.0175C57.8618 33.8691 57.8371 33.7455 57.7629 33.6219C57.7135 33.523 57.6146 33.4489 57.5157 33.3747C57.4168 33.3005 57.2932 33.2758 57.1696 33.2511C57.0707 33.2264 56.9224 33.2264 56.774 33.2264Z" fill="#BABABA"/>
<path d="M62.0645 32.7563V33.2508H60.779V36.8355H60.2104V33.2508H58.9249V32.7563H62.0645Z" fill="#BABABA"/>
<path d="M64.6603 35.13C64.7345 35.2041 64.8087 35.303 64.9076 35.4513C65.0064 35.5997 65.1053 35.7233 65.2042 35.8716C65.3031 36.0199 65.402 36.193 65.5009 36.3661C65.5998 36.5391 65.6987 36.6874 65.7481 36.8605H65.1301C65.0559 36.7122 64.957 36.5638 64.8828 36.4155C64.784 36.2672 64.6851 36.1188 64.6109 35.9705C64.5367 35.8222 64.4131 35.6986 64.339 35.575C64.2401 35.4513 64.1659 35.3525 64.0917 35.2536C64.0423 35.2536 63.9928 35.2536 63.9434 35.2536C63.894 35.2536 63.8445 35.2536 63.7704 35.2536H63.2512V36.8605H62.6826V32.8308C62.8556 32.7814 63.0287 32.7567 63.2265 32.7567C63.4242 32.7319 63.5973 32.7319 63.7704 32.7319C64.339 32.7319 64.784 32.8308 65.0806 33.0533C65.3773 33.2758 65.5256 33.5972 65.5256 34.0175C65.5256 34.2894 65.4514 34.5119 65.3031 34.7097C65.1548 34.9075 64.957 35.0558 64.6603 35.13ZM63.7951 33.2264C63.5479 33.2264 63.3748 33.2264 63.2265 33.2511V34.7838H63.622C63.8198 34.7838 63.9929 34.7838 64.1412 34.7591C64.2895 34.7344 64.4378 34.7097 64.5367 34.6355C64.6356 34.5861 64.7345 34.5119 64.7839 34.413C64.8334 34.3141 64.8828 34.1905 64.8828 34.0175C64.8828 33.8691 64.8581 33.7455 64.7839 33.6219C64.7345 33.523 64.6356 33.4489 64.5367 33.3747C64.4378 33.3005 64.3142 33.2758 64.1906 33.2511C64.0917 33.2264 63.9681 33.2264 63.7951 33.2264Z" fill="#BABABA"/>
<path d="M69.2833 36.8604C69.2092 36.6873 69.1597 36.5143 69.0856 36.3412C69.0361 36.1682 68.9619 35.9951 68.9125 35.8221H67.0583L66.6875 36.8604H66.0942C66.2425 36.4401 66.3908 36.0198 66.5392 35.649C66.6875 35.2782 66.8111 34.9321 66.9347 34.6107C67.0583 34.2893 67.2067 33.9679 67.3303 33.6712C67.4539 33.3746 67.6022 33.0779 67.7258 32.7812H68.245C68.3933 33.0779 68.5169 33.3746 68.6406 33.6712C68.7642 33.9679 68.9125 34.2893 69.0361 34.6107C69.1597 34.9321 69.308 35.2782 69.4317 35.649C69.58 36.0198 69.7283 36.4154 69.8767 36.8604H69.2833ZM68.7394 35.3276C68.6158 34.9815 68.4922 34.6601 68.3686 34.3387C68.245 34.0174 68.1214 33.7207 67.9731 33.424C67.8247 33.7207 67.7011 34.0174 67.5775 34.3387C67.4539 34.6601 67.3303 34.9815 67.2067 35.3276H68.7394Z" fill="#BABABA"/>
<path d="M71.9286 36.9347C71.6566 36.9347 71.4341 36.8852 71.2364 36.811C71.0386 36.7369 70.8902 36.6133 70.7419 36.4649C70.6183 36.3166 70.5194 36.1436 70.47 35.9458C70.4205 35.748 70.3711 35.5255 70.3711 35.303V32.7319H70.9397V35.2288C70.9397 35.6491 71.0386 35.9458 71.2116 36.1188C71.3847 36.2919 71.6319 36.3908 71.9286 36.3908C72.0769 36.3908 72.2005 36.3661 72.3241 36.3166C72.4477 36.2672 72.5466 36.193 72.6455 36.1188C72.7444 36.0447 72.7938 35.8963 72.8433 35.748C72.8927 35.5997 72.9174 35.4266 72.9174 35.2288V32.7319H73.486V35.303C73.486 35.5255 73.4613 35.748 73.3871 35.9458C73.3377 36.1436 73.2388 36.3166 73.1152 36.4649C72.9916 36.6133 72.8185 36.7122 72.6208 36.811C72.423 36.9099 72.1758 36.9347 71.9286 36.9347Z" fill="#BABABA"/>
<path d="M74.4502 36.8604V32.7812H76.9471V33.2757H75.0188V34.4871H76.7246V34.9568H75.0188V36.3659H77.0954V36.8604H74.4502Z" fill="#BABABA"/>
<path d="M80.6307 36.8604C80.5318 36.712 80.4329 36.5637 80.334 36.3659C80.2351 36.1682 80.1115 35.9951 79.9632 35.7973C79.8149 35.5996 79.6912 35.4018 79.5676 35.204C79.4193 35.0062 79.2957 34.8084 79.1474 34.6354C78.999 34.4376 78.8754 34.2646 78.7518 34.1162C78.6282 33.9679 78.5046 33.7949 78.381 33.6712V36.8604H77.8124V32.7812H78.2574C78.4304 32.979 78.6282 33.2015 78.8507 33.4735C79.0732 33.7454 79.271 33.9926 79.4688 34.2893C79.6665 34.586 79.8643 34.8332 80.0621 35.1051C80.2599 35.3771 80.4082 35.5996 80.5318 35.8221V32.806H81.1004V36.8851H80.6307V36.8604Z" fill="#BABABA"/>
<path d="M90.9397 28.0097C90.9397 28.3064 90.8903 28.5783 90.7914 28.8008C90.6925 29.0233 90.5689 29.2458 90.3958 29.3942C90.2228 29.5672 90.025 29.6908 89.8025 29.765C89.58 29.8392 89.3575 29.8886 89.1103 29.8886C88.8631 29.8886 88.6406 29.8392 88.4181 29.765C88.1956 29.6908 87.9978 29.5672 87.8247 29.3942C87.6517 29.2211 87.5281 29.0233 87.4292 28.8008C87.3303 28.5783 87.2809 28.3064 87.2809 28.0097C87.2809 27.7131 87.3303 27.4411 87.4292 27.2186C87.5281 26.9714 87.6517 26.7736 87.8247 26.6253C87.9978 26.4522 88.1956 26.3286 88.4181 26.2545C88.6406 26.1803 88.8631 26.1309 89.1103 26.1309C89.3575 26.1309 89.58 26.1803 89.8025 26.2545C90.025 26.3286 90.2228 26.4522 90.3958 26.6253C90.5689 26.7984 90.6925 26.9961 90.7914 27.2186C90.8903 27.4411 90.9397 27.7131 90.9397 28.0097ZM90.3958 28.0097C90.3958 27.812 90.3711 27.6142 90.2969 27.4411C90.2228 27.2681 90.1486 27.1197 90.025 26.9961C89.9014 26.8725 89.7778 26.7736 89.6047 26.7242C89.4317 26.6747 89.2833 26.6253 89.0856 26.6253C88.8878 26.6253 88.7147 26.65 88.5664 26.7242C88.4181 26.7984 88.2697 26.8972 88.1461 26.9961C88.0225 27.1197 87.9484 27.2681 87.8742 27.4411C87.8 27.6142 87.7753 27.812 87.7753 28.0097C87.7753 28.2075 87.8 28.4053 87.8742 28.5783C87.9484 28.7514 88.0225 28.8997 88.1461 29.0233C88.2697 29.1469 88.3933 29.2458 88.5664 29.2953C88.7147 29.3694 88.8878 29.3942 89.0856 29.3942C89.2833 29.3942 89.4564 29.3694 89.6047 29.2953C89.7531 29.2211 89.9014 29.1222 90.025 29.0233C90.1486 28.8997 90.2228 28.7514 90.2969 28.5783C90.3711 28.4053 90.3958 28.2075 90.3958 28.0097ZM89.4317 28.8997C89.3822 28.7761 89.3328 28.6525 89.2833 28.5536C89.2339 28.4547 89.1844 28.3558 89.135 28.2817H88.9372V28.8997H88.4181V27.095C88.5417 27.0703 88.6406 27.0456 88.7395 27.0456C88.8383 27.0456 88.9372 27.0209 89.0114 27.0209C89.58 27.0209 89.8519 27.2433 89.8519 27.6636C89.8519 27.8861 89.753 28.0345 89.58 28.1333C89.6294 28.1828 89.6542 28.257 89.6789 28.3064C89.7036 28.3558 89.7283 28.4053 89.7778 28.4794C89.8272 28.5536 89.8272 28.6031 89.8767 28.6772C89.9014 28.7514 89.9508 28.8256 89.9756 28.8997H89.4317ZM88.9372 27.8614H89.0361C89.1597 27.8614 89.2339 27.8367 89.2833 27.812C89.3328 27.7872 89.3575 27.7131 89.3575 27.6389C89.3575 27.5647 89.3328 27.5153 89.2833 27.4906C89.2339 27.4658 89.1597 27.4411 89.0608 27.4411C89.0361 27.4411 89.0114 27.4411 88.9867 27.4411C88.962 27.4411 88.9372 27.4411 88.9125 27.4411V27.8614H88.9372Z" fill="#06D6A0"/>
<path d="M3.25119 2.34858H83.5232V27.6391H3.25119V2.34858ZM0.927338 29.9629H85.8717V0H0.927338V29.9629Z" fill="#06D6A0"/>
<path d="M9.57999 15.0059C8.76417 14.5609 8.1214 13.9182 7.6764 13.1271C7.20669 12.3113 6.98419 11.4213 6.98419 10.4077C6.98419 9.39407 7.20669 8.47937 7.6764 7.68827C8.14612 6.89717 8.78889 6.25439 9.57999 5.8094C10.3958 5.36441 11.3105 5.11719 12.3241 5.11719C13.1647 5.11719 13.9558 5.26552 14.648 5.58691C15.3402 5.90829 15.9088 6.35328 16.3785 6.92189L14.9199 8.33103C14.2524 7.53993 13.4366 7.11966 12.4477 7.11966C11.8297 7.11966 11.2858 7.26799 10.8161 7.53993C10.3464 7.81187 9.97554 8.20742 9.7036 8.70186C9.43166 9.1963 9.30805 9.7649 9.30805 10.4077C9.30805 11.0504 9.43166 11.619 9.7036 12.1135C9.97554 12.6079 10.3464 13.0035 10.8161 13.2754C11.2858 13.5473 11.8297 13.6957 12.4477 13.6957C13.4366 13.6957 14.2524 13.3001 14.9199 12.4843L16.3785 13.8935C15.9088 14.4868 15.3402 14.9318 14.648 15.2532C13.9558 15.5745 13.1894 15.7229 12.3241 15.7229C11.2858 15.6982 10.3958 15.4757 9.57999 15.0059Z" fill="#06D6A0"/>
<path d="M23.8198 13.3246H19.2463L18.381 15.5249H16.0571L20.4329 5.29004H22.6826L27.0831 15.5249H24.6851L23.8198 13.3246ZM23.1029 11.5199L21.5454 7.58917L19.9879 11.5199H23.1029Z" fill="#06D6A0"/>
<path d="M36.5763 5.26562V15.5005H34.6974L29.8025 9.27057V15.5005H27.5528V5.26562H29.4317L34.3266 11.4955V5.26562H36.5763Z" fill="#06D6A0"/>
<path d="M47.0831 5.26562V15.5005H45.2042L40.3093 9.27057V15.5005H38.0596V5.26562H39.9385L44.8334 11.4955V5.26562H47.0831Z" fill="#06D6A0"/>
<path d="M55.3402 13.3246H50.7666L49.9014 15.5249H47.5775L51.9533 5.29004H54.203L58.6035 15.5249H56.2055L55.3402 13.3246ZM54.6233 11.5199L53.0658 7.58917L51.5083 11.5199H54.6233Z" fill="#06D6A0"/>
<path d="M67.3303 11.1247C67.6517 11.5697 67.8 12.0889 67.8 12.7316C67.8 13.6216 67.4539 14.3138 66.7864 14.8083C66.119 15.3027 65.1301 15.5252 63.8445 15.5252H58.7518V5.26562H63.5479C64.7345 5.26562 65.674 5.51284 66.3167 5.98256C66.9595 6.45227 67.2809 7.11977 67.2809 7.93559C67.2809 8.43003 67.1573 8.87502 66.9348 9.27057C66.7123 9.66612 66.3909 9.96278 65.9706 10.1853C66.5887 10.3831 67.0089 10.6797 67.3303 11.1247ZM61.051 7.07032V9.49307H63.3254C63.894 9.49307 64.3143 9.39418 64.6109 9.1964C64.9076 8.99863 65.0559 8.67724 65.0559 8.28169C65.0559 7.88614 64.9076 7.58948 64.6109 7.39171C64.3143 7.19393 63.894 7.09504 63.3254 7.09504H61.051V7.07032ZM65.0806 13.4238C65.3773 13.2261 65.5256 12.9047 65.5256 12.4844C65.5256 11.6439 64.9323 11.1989 63.7209 11.1989H61.0757V13.7205H63.7209C64.3143 13.7452 64.7592 13.6216 65.0806 13.4238Z" fill="#06D6A0"/>
<path d="M68.69 5.26562H70.9644V15.5005H68.69V5.26562Z" fill="#06D6A0"/>
<path d="M73.4613 15.3769C72.7444 15.1545 72.1511 14.8825 71.7061 14.5117L72.4725 12.7317C72.8927 13.0531 73.3872 13.3003 73.9805 13.4981C74.5491 13.6959 75.1424 13.7947 75.711 13.7947C76.3538 13.7947 76.8235 13.6959 77.1449 13.4981C77.4415 13.3003 77.6146 13.0284 77.6146 12.707C77.6146 12.4598 77.5157 12.262 77.3427 12.0889C77.1696 11.9159 76.9224 11.7923 76.6505 11.6934C76.3538 11.5945 75.983 11.4956 75.4885 11.372C74.7469 11.199 74.1288 11.0012 73.6591 10.8281C73.1894 10.6551 72.7691 10.3337 72.423 9.93813C72.0769 9.51786 71.9039 8.97398 71.9039 8.30649C71.9039 7.71317 72.0522 7.16929 72.3736 6.69957C72.695 6.20513 73.14 5.8343 73.7827 5.56236C74.4008 5.29042 75.1672 5.14209 76.0571 5.14209C76.6752 5.14209 77.2932 5.21625 77.8865 5.36459C78.4799 5.51292 78.999 5.73542 79.4687 6.03208L78.7765 7.83677C77.8618 7.29289 76.9471 7.02095 76.0571 7.02095C75.4144 7.02095 74.9447 7.11984 74.648 7.34234C74.3513 7.56483 74.203 7.83678 74.203 8.18288C74.203 8.52899 74.376 8.80093 74.7222 8.97398C75.0683 9.14704 75.6121 9.32009 76.3291 9.46842C77.0707 9.66619 77.6888 9.83924 78.1585 10.037C78.6282 10.2348 79.0485 10.5067 79.3946 10.927C79.7407 11.3226 79.9137 11.8664 79.9137 12.5587C79.9137 13.152 79.7654 13.6711 79.444 14.1656C79.1226 14.66 78.6529 15.0308 78.0349 15.3028C77.4168 15.5747 76.6504 15.7231 75.7357 15.7231C74.9446 15.6983 74.1783 15.5747 73.4613 15.3769Z" fill="#06D6A0"/>
<path d="M11.6319 24.0791H8.81362L8.26975 25.4141H6.83588L9.55528 19.1348H10.9397L13.6591 25.4141H12.1758L11.6319 24.0791ZM11.1869 22.9914L10.2228 20.5934L9.25862 22.9914H11.1869Z" fill="#BABABA"/>
<path d="M21.4712 19.4316C21.8668 19.6294 22.1634 19.8766 22.3859 20.2227C22.6084 20.5688 22.7073 20.9644 22.7073 21.4341C22.7073 21.9038 22.6084 22.2993 22.3859 22.6455C22.1634 22.9916 21.8668 23.2635 21.4712 23.4366C21.0757 23.6096 20.606 23.7085 20.0621 23.7085H18.826V25.439H17.4168V19.1597H20.0621C20.606 19.1597 21.0757 19.2585 21.4712 19.4316ZM20.9521 22.2252C21.1746 22.0274 21.2735 21.7802 21.2735 21.4341C21.2735 21.088 21.1746 20.816 20.9521 20.6183C20.7296 20.4205 20.4082 20.3463 19.9879 20.3463H18.8507V22.5218H19.9879C20.4082 22.5218 20.7296 22.423 20.9521 22.2252Z" fill="#BABABA"/>
<path d="M28.1709 25.1174C27.6517 24.8455 27.2561 24.4499 26.9842 23.9555C26.7123 23.461 26.5639 22.9172 26.5639 22.2991C26.5639 21.6811 26.7123 21.1372 26.9842 20.6428C27.2561 20.1483 27.6764 19.7528 28.1709 19.4808C28.69 19.2089 29.2586 19.0605 29.8767 19.0605C30.5194 19.0605 31.088 19.2089 31.5825 19.4808C32.0769 19.7528 32.4725 20.1483 32.7691 20.6428C33.0658 21.1372 33.2141 21.6811 33.2141 22.2991C33.2141 22.9172 33.0658 23.461 32.7691 23.9555C32.4725 24.4499 32.0769 24.8455 31.5825 25.1174C31.088 25.3893 30.5194 25.5377 29.8767 25.5377C29.2339 25.5377 28.6653 25.4141 28.1709 25.1174ZM30.8408 24.0544C31.1375 23.8813 31.36 23.6341 31.533 23.3374C31.7061 23.0408 31.7802 22.6947 31.7802 22.2991C31.7802 21.9036 31.7061 21.5575 31.533 21.2608C31.36 20.9641 31.1375 20.7169 30.8408 20.5439C30.5442 20.3708 30.2228 20.2966 29.8767 20.2966C29.5058 20.2966 29.1845 20.3708 28.9125 20.5439C28.6159 20.7169 28.3933 20.9641 28.2203 21.2608C28.0472 21.5575 27.9731 21.9036 27.9731 22.2991C27.9731 22.6947 28.0472 23.0408 28.2203 23.3374C28.3933 23.6341 28.6159 23.8813 28.9125 24.0544C29.2092 24.2274 29.5306 24.3016 29.8767 24.3016C30.2228 24.3016 30.5442 24.2274 30.8408 24.0544Z" fill="#BABABA"/>
<path d="M38.6529 20.3463H36.6999V19.1597H42.0151V20.3463H40.0621V25.439H38.6529V20.3463Z" fill="#BABABA"/>
<path d="M51.4836 19.1597V25.439H50.0744V22.868H47.3056V25.439H45.8965V19.1597H47.3056V21.6319H50.0744V19.1597H51.4836Z" fill="#BABABA"/>
<path d="M60.779 24.2771V25.439H56.0571V19.1597H60.6554V20.3216H57.4416V21.6813H60.2598V22.8185H57.4416V24.2771H60.779Z" fill="#BABABA"/>
<path d="M67.2562 22.9667L66.4403 23.8566V25.4388H65.0312V19.1595H66.4403V22.0767L69.135 19.1348H70.6925L68.1709 21.9531L70.8408 25.4388H69.1845L67.2562 22.9667Z" fill="#BABABA"/>
<path d="M79.3204 24.2771V25.439H74.5985V19.1597H79.1968V20.3216H75.9829V21.6813H78.8012V22.8185H75.9829V24.2771H79.3204Z" fill="#BABABA"/>
</svg>
