<svg width="26" height="26" viewBox="0 0 26 26" fill="none" xmlns="http://www.w3.org/2000/svg">
<path d="M24.8625 19.4187C24.6188 18.9312 24.375 18.4437 23.9688 18.0375L22.9937 17.0625C23.1562 18.525 22.9125 20.0687 22.3438 21.45C21.775 22.8312 20.8812 24.05 19.7437 25.025C22.425 25.9187 25.2688 23.8875 25.2688 21.0437C25.1875 20.475 25.1063 19.9062 24.8625 19.4187Z" fill="#D5F8EC"/>
<path d="M15.1125 14.0562C14.8688 13.4875 14.3812 13.0812 13.8125 12.9187C13.975 13.8937 13.8937 14.8687 13.65 15.7625C13.4062 16.6562 12.9188 17.55 12.2688 18.2812L9.50625 15.5187C9.34375 17.4687 8.69375 19.4187 7.475 20.9625C6.3375 22.5875 4.7125 23.8062 2.84375 24.5375C3.65625 25.025 4.55 25.1875 5.525 25.1062C6.41875 25.025 7.3125 24.5375 7.9625 23.8875L12.9187 18.9312H13.1625L17.7125 14.3812C17.3875 14.1375 16.9 13.8937 16.4937 13.8125C16.0062 13.8937 15.5188 13.8937 15.1125 14.0562Z" fill="#D5F8EC"/>
<path d="M15.8438 7.23123C15.1125 8.20623 14.1375 8.77498 13 9.01873V7.06873C13 6.41873 12.9188 5.84998 12.675 5.28123C12.4313 4.71248 12.1063 4.22498 11.6188 3.73748C11.7 4.71248 11.4563 5.76873 10.9688 6.66248C10.4812 7.55623 9.75 8.28748 8.85625 8.77498C9.50625 9.09998 10.1562 9.26248 10.8875 9.26248H15.0312C15.925 9.26248 16.7375 8.93748 17.3062 8.28748C17.9562 7.63748 18.2812 6.82498 18.2812 6.01248V3.98123H16.7375C16.9 5.11873 16.575 6.33748 15.8438 7.23123Z" fill="#D5F8EC"/>
<path d="M24.5375 17.4688L19.5813 12.5125C19.5 12.4312 19.4187 12.35 19.3375 12.35C19.2562 12.2687 19.0937 12.2688 19.0125 12.2688C18.9312 12.2688 18.7688 12.2687 18.6875 12.35C18.6062 12.4312 18.525 12.4312 18.4438 12.5125L17.55 13.4062C17.3063 13.325 17.1437 13.2438 16.9 13.1625C16.4125 13.0813 15.925 13 15.4375 13.0813C15.3562 13 15.1938 12.8375 15.1125 12.7562V9.99375C16.1688 9.99375 17.1438 9.5875 17.875 8.775C18.6062 8.04375 19.0938 6.9875 19.0938 5.93125V3.98125C19.0938 3.7375 19.0125 3.575 18.85 3.4125C18.6875 3.25 18.525 3.16875 18.2812 3.16875H16.25C15.8438 3.16875 15.5188 3.25 15.1125 3.33125V2.1125C15.1125 1.54375 14.8687 0.975 14.4625 0.56875C14.1375 0.24375 13.5687 0 13 0C12.4313 0 11.8625 0.24375 11.4563 0.65C11.05 1.05625 10.8063 1.625 10.8063 2.19375V2.275C9.99375 1.86875 9.18125 1.625 8.2875 1.625H6.175C6.0125 1.625 5.76875 1.70625 5.60625 1.86875C5.44375 2.03125 5.3625 2.19375 5.3625 2.4375V4.55C5.3625 6.0125 5.93125 7.39375 6.9875 8.45C8.04375 9.50625 9.425 10.075 10.8875 10.075V12.8375C10.8062 12.9188 10.6438 13 10.5625 13.1625C10.075 13.0813 9.5875 13.0812 9.1 13.2437C8.85625 13.325 8.6125 13.4063 8.45 13.4875L7.55625 12.5938C7.475 12.5125 7.39375 12.4313 7.3125 12.4313C7.23125 12.35 7.06875 12.35 6.9875 12.35C6.90625 12.35 6.74375 12.35 6.6625 12.4313C6.58125 12.5125 6.5 12.5125 6.41875 12.5938L1.4625 17.55C0.73125 18.2813 0.325 19.0938 0.08125 20.0688C-0.08125 21.0438 0 22.0188 0.325 22.9125C0.73125 23.8063 1.3 24.6187 2.19375 25.1062C3.00625 25.675 3.98125 25.9187 4.95625 25.9187C5.60625 25.9187 6.25625 25.7562 6.825 25.5125C7.39375 25.2687 7.9625 24.8625 8.45 24.4563L12.9187 19.9875L17.3875 24.4563C18.2812 25.35 19.5813 25.9187 20.8813 25.9187C22.1813 25.9187 23.4812 25.4313 24.375 24.4563C25.2688 23.5625 25.8375 22.2625 25.8375 20.9625C25.8375 19.6625 25.5125 18.4438 24.5375 17.4688ZM17.4688 4.79375V6.0125C17.4688 6.6625 17.225 7.3125 16.7375 7.71875C16.25 8.20625 15.6813 8.45 15.0312 8.45H14.95L15.7625 7.6375C15.925 7.475 16.0063 7.3125 16.0063 7.06875C16.0063 6.825 15.925 6.6625 15.7625 6.5C15.6 6.3375 15.4375 6.25625 15.1938 6.25625C14.95 6.25625 14.7875 6.3375 14.625 6.5L13.8125 7.3125V7.23125C13.8125 6.58125 14.0562 5.93125 14.5437 5.525C15.0312 5.0375 15.6 4.79375 16.25 4.79375H17.4688ZM12.675 1.7875C12.7563 1.70625 12.8375 1.625 13 1.625C13.1625 1.625 13.2437 1.70625 13.325 1.7875C13.4062 1.86875 13.4875 2.03125 13.4875 2.1125V4.225C13.4063 4.225 13.4062 4.30625 13.325 4.30625C13.2437 4.3875 13.1625 4.46875 13.1625 4.55C13 4.225 12.7563 3.81875 12.4313 3.49375V2.1125C12.5125 2.03125 12.5125 1.86875 12.675 1.7875ZM8.125 7.3125C7.39375 6.58125 6.9875 5.60625 6.9875 4.55V3.25H8.2875C9.34375 3.25 10.3188 3.65625 11.05 4.3875C11.7813 5.11875 12.1875 6.09375 12.1875 7.15V7.3125L10.3187 5.44375C10.2375 5.3625 10.1562 5.28125 10.075 5.28125C9.99375 5.2 9.83125 5.2 9.75 5.2C9.66875 5.2 9.50625 5.2 9.425 5.28125C9.34375 5.3625 9.2625 5.3625 9.18125 5.44375C9.1 5.525 9.01875 5.60625 9.01875 5.6875C9.01875 5.76875 8.9375 5.93125 8.9375 6.0125C8.9375 6.09375 8.9375 6.25625 9.01875 6.3375C9.1 6.41875 9.1 6.5 9.18125 6.58125L11.05 8.45H10.8875C9.83125 8.45 8.85625 8.04375 8.125 7.3125ZM12.5125 10.075H13.4875V12.025C13.1625 11.9438 12.8375 11.9438 12.5125 12.025V10.075ZM10.6438 14.8687C10.8063 14.95 11.05 14.95 11.2125 14.8687C11.375 14.7875 11.5375 14.625 11.6188 14.4625C12.1875 13.325 13.8125 13.325 14.3813 14.4625C14.4625 14.625 14.625 14.7875 14.7875 14.8687C14.95 14.95 15.1937 14.95 15.3562 14.8687C15.6 14.7875 15.925 14.7063 16.25 14.7875L13 18.0375L9.75 14.7875C10.075 14.7063 10.3188 14.7062 10.6438 14.8687ZM7.3125 23.4C6.74375 24.05 5.85 24.375 4.95625 24.375C4.55 24.375 4.0625 24.2938 3.65625 24.1313C3.25 23.9688 2.84375 23.725 2.6 23.4C2.275 23.075 2.03125 22.75 1.86875 22.3438C1.70625 21.9375 1.625 21.45 1.625 21.0437C1.625 20.15 1.95 19.3375 2.6 18.6875L6.9875 14.3L11.7 19.0125L7.3125 23.4ZM24.1313 22.3438C23.9688 22.75 23.725 23.1562 23.4 23.4C23.075 23.725 22.75 23.9688 22.3438 24.1313C21.9375 24.2938 21.5312 24.375 21.0437 24.375C20.5562 24.375 20.15 24.2938 19.7437 24.1313C19.3375 23.9688 18.9313 23.725 18.6875 23.4L14.3 19.0125L19.0125 14.3L23.4 18.6875C23.725 19.0125 23.9688 19.3375 24.1313 19.7437C24.2938 20.15 24.375 20.5562 24.375 21.0437C24.375 21.5312 24.2938 21.9375 24.1313 22.3438Z" fill="#2FDAA0"/>
</svg>
