<svg width="32" height="32" viewBox="0 0 32 32" fill="none" xmlns="http://www.w3.org/2000/svg">
<path d="M30.6 23.9C30.3 23.3 30 22.7 29.5 22.2L28.3 21C28.5 22.8 28.2 24.7 27.5 26.4C26.8 28.1 25.7 29.6 24.3 30.8C27.6 31.9 31.1 29.4 31.1 25.9C31 25.2 30.9 24.5 30.6 23.9Z" fill="#D5F8EC"/>
<path d="M18.6 17.3C18.3 16.6 17.7 16.1 17 15.9C17.2 17.1 17.1 18.3 16.8 19.4C16.5 20.5 15.9 21.6 15.1 22.5L11.7 19.1C11.5 21.5 10.7 23.9 9.2 25.8C7.8 27.8 5.8 29.3 3.5 30.2C4.5 30.8 5.6 31 6.8 30.9C7.9 30.8 9 30.2 9.8 29.4L15.9 23.3H16.2L21.8 17.7C21.4 17.4 20.8 17.1 20.3 17C19.7 17.1 19.1 17.1 18.6 17.3Z" fill="#D5F8EC"/>
<path d="M19.5 8.89997C18.6 10.1 17.4 10.8 16 11.1V8.69998C16 7.89998 15.9 7.19998 15.6 6.49998C15.3 5.79998 14.9 5.19998 14.3 4.59998C14.4 5.79998 14.1 7.09998 13.5 8.19998C12.9 9.29998 12 10.2 10.9 10.8C11.7 11.2 12.5 11.4 13.4 11.4H18.5C19.6 11.4 20.6 11 21.3 10.2C22.1 9.39998 22.5 8.39998 22.5 7.39998V4.89998H20.6C20.8 6.29998 20.4 7.79997 19.5 8.89997Z" fill="#D5F8EC"/>
<path d="M30.2 21.5L24.1 15.4C24 15.3 23.9 15.2 23.8 15.2C23.7 15.1 23.5 15.1 23.4 15.1C23.3 15.1 23.1 15.1 23 15.2C22.9 15.3 22.8 15.3 22.7 15.4L21.6 16.5C21.3 16.4 21.1 16.3 20.8 16.2C20.2 16.1 19.6 16 19 16.1C18.9 16 18.7 15.8 18.6 15.7V12.3C19.9 12.3 21.1 11.8 22 10.8C22.9 9.9 23.5 8.6 23.5 7.3V4.9C23.5 4.6 23.4 4.4 23.2 4.2C23 4 22.8 3.9 22.5 3.9H20C19.5 3.9 19.1 4 18.6 4.1V2.6C18.6 1.9 18.3 1.2 17.8 0.7C17.4 0.3 16.7 0 16 0C15.3 0 14.6 0.3 14.1 0.8C13.6 1.3 13.3 2 13.3 2.7V2.8C12.3 2.3 11.3 2 10.2 2H7.6C7.4 2 7.1 2.1 6.9 2.3C6.7 2.5 6.6 2.7 6.6 3V5.6C6.6 7.4 7.3 9.1 8.6 10.4C9.9 11.7 11.6 12.4 13.4 12.4V15.8C13.3 15.9 13.1 16 13 16.2C12.4 16.1 11.8 16.1 11.2 16.3C10.9 16.4 10.6 16.5 10.4 16.6L9.3 15.5C9.2 15.4 9.1 15.3 9 15.3C8.9 15.2 8.7 15.2 8.6 15.2C8.5 15.2 8.3 15.2 8.2 15.3C8.1 15.4 8 15.4 7.9 15.5L1.8 21.6C0.9 22.5 0.4 23.5 0.1 24.7C-0.1 25.9 0 27.1 0.4 28.2C0.9 29.3 1.6 30.3 2.7 30.9C3.7 31.6 4.9 31.9 6.1 31.9C6.9 31.9 7.7 31.7 8.4 31.4C9.1 31.1 9.8 30.6 10.4 30.1L15.9 24.6L21.4 30.1C22.5 31.2 24.1 31.9 25.7 31.9C27.3 31.9 28.9 31.3 30 30.1C31.1 29 31.8 27.4 31.8 25.8C31.8 24.2 31.4 22.7 30.2 21.5ZM21.5 5.9V7.4C21.5 8.2 21.2 9 20.6 9.5C20 10.1 19.3 10.4 18.5 10.4H18.4L19.4 9.4C19.6 9.2 19.7 9 19.7 8.7C19.7 8.4 19.6 8.2 19.4 8C19.2 7.8 19 7.7 18.7 7.7C18.4 7.7 18.2 7.8 18 8L17 9V8.9C17 8.1 17.3 7.3 17.9 6.8C18.5 6.2 19.2 5.9 20 5.9H21.5ZM15.6 2.2C15.7 2.1 15.8 2 16 2C16.2 2 16.3 2.1 16.4 2.2C16.5 2.3 16.6 2.5 16.6 2.6V5.2C16.5 5.2 16.5 5.3 16.4 5.3C16.3 5.4 16.2 5.5 16.2 5.6C16 5.2 15.7 4.7 15.3 4.3V2.6C15.4 2.5 15.4 2.3 15.6 2.2ZM10 9C9.1 8.1 8.6 6.9 8.6 5.6V4H10.2C11.5 4 12.7 4.5 13.6 5.4C14.5 6.3 15 7.5 15 8.8V9L12.7 6.7C12.6 6.6 12.5 6.5 12.4 6.5C12.3 6.4 12.1 6.4 12 6.4C11.9 6.4 11.7 6.4 11.6 6.5C11.5 6.6 11.4 6.6 11.3 6.7C11.2 6.8 11.1 6.9 11.1 7C11.1 7.1 11 7.3 11 7.4C11 7.5 11 7.7 11.1 7.8C11.2 7.9 11.2 8 11.3 8.1L13.6 10.4H13.4C12.1 10.4 10.9 9.9 10 9ZM15.4 12.4H16.6V14.8C16.2 14.7 15.8 14.7 15.4 14.8V12.4ZM13.1 18.3C13.3 18.4 13.6 18.4 13.8 18.3C14 18.2 14.2 18 14.3 17.8C15 16.4 17 16.4 17.7 17.8C17.8 18 18 18.2 18.2 18.3C18.4 18.4 18.7 18.4 18.9 18.3C19.2 18.2 19.6 18.1 20 18.2L16 22.2L12 18.2C12.4 18.1 12.7 18.1 13.1 18.3ZM9 28.8C8.3 29.6 7.2 30 6.1 30C5.6 30 5 29.9 4.5 29.7C4 29.5 3.5 29.2 3.2 28.8C2.8 28.4 2.5 28 2.3 27.5C2.1 27 2 26.4 2 25.9C2 24.8 2.4 23.8 3.2 23L8.6 17.6L14.4 23.4L9 28.8ZM29.7 27.5C29.5 28 29.2 28.5 28.8 28.8C28.4 29.2 28 29.5 27.5 29.7C27 29.9 26.5 30 25.9 30C25.3 30 24.8 29.9 24.3 29.7C23.8 29.5 23.3 29.2 23 28.8L17.6 23.4L23.4 17.6L28.8 23C29.2 23.4 29.5 23.8 29.7 24.3C29.9 24.8 30 25.3 30 25.9C30 26.5 29.9 27 29.7 27.5Z" fill="#2FDAA0"/>
</svg>
