<svg width="49" height="49" viewBox="0 0 49 49" fill="none" xmlns="http://www.w3.org/2000/svg">
<g clip-path="url(#clip0_1689_12057)">
<path d="M26.1803 24.5008L33.6519 17.0293C34.116 16.5655 34.116 15.8129 33.6519 15.3491C33.1877 14.8849 32.4359 14.8849 31.9717 15.3491L24.5002 22.8206L17.0283 15.3491C16.5641 14.8849 15.8123 14.8849 15.3481 15.3491C14.884 15.8129 14.884 16.5655 15.3481 17.0293L22.8201 24.5008L15.3481 31.9723C14.884 32.4361 14.884 33.1886 15.3481 33.6524C15.5802 33.8841 15.8844 34.0002 16.1882 34.0002C16.492 34.0002 16.7962 33.8841 17.0283 33.652L24.5002 26.1805L31.9717 33.652C32.2038 33.8841 32.508 34.0002 32.8118 34.0002C33.1156 34.0002 33.4198 33.8841 33.6519 33.652C34.116 33.1882 34.116 32.4357 33.6519 31.9719L26.1803 24.5008Z" fill="white"/>
</g>
<defs>
<clipPath id="clip0_1689_12057">
<rect width="19" height="19" fill="white" transform="translate(15 15)"/>
</clipPath>
</defs>
</svg>
