<svg width="24" height="24" viewBox="0 0 24 24" fill="none" xmlns="http://www.w3.org/2000/svg">
<path d="M12 16C11.8684 16.0008 11.7379 15.9755 11.6161 15.9258C11.4943 15.876 11.3834 15.8027 11.29 15.71L7.29 11.71C7.12617 11.5187 7.04057 11.2726 7.05029 11.0209C7.06001 10.7693 7.16434 10.5305 7.34244 10.3524C7.52053 10.1743 7.75927 10.07 8.01095 10.0603C8.26262 10.0506 8.5087 10.1362 8.7 10.3L12 13.59L15.29 10.3C15.4813 10.1362 15.7274 10.0506 15.9791 10.0603C16.2307 10.07 16.4695 10.1743 16.6476 10.3524C16.8257 10.5305 16.93 10.7693 16.9397 11.0209C16.9494 11.2726 16.8638 11.5187 16.7 11.71L12.7 15.71C12.5137 15.8947 12.2623 15.9989 12 16Z" fill="#06D6A0"/>
<path d="M12 16C11.7348 16 11.4804 15.8946 11.2929 15.7071C11.1054 15.5196 11 15.2652 11 15V5C11 4.73478 11.1054 4.48043 11.2929 4.29289C11.4804 4.10536 11.7348 4 12 4C12.2652 4 12.5196 4.10536 12.7071 4.29289C12.8946 4.48043 13 4.73478 13 5V15C13 15.2652 12.8946 15.5196 12.7071 15.7071C12.5196 15.8946 12.2652 16 12 16ZM19 20H5C4.73478 20 4.48043 19.8946 4.29289 19.7071C4.10536 19.5196 4 19.2652 4 19C4 18.7348 4.10536 18.4804 4.29289 18.2929C4.48043 18.1054 4.73478 18 5 18H19C19.2652 18 19.5196 18.1054 19.7071 18.2929C19.8946 18.4804 20 18.7348 20 19C20 19.2652 19.8946 19.5196 19.7071 19.7071C19.5196 19.8946 19.2652 20 19 20Z" fill="#06D6A0"/>
</svg>
