<svg width="36" height="36" viewBox="0 0 36 36" fill="none" xmlns="http://www.w3.org/2000/svg">
<g clip-path="url(#clip0_1528_11572)">
<path d="M12.7124 1.12498C13.1624 7.87498 8.21244 13.8375 1.57494 14.625C3.14994 17.55 8.32494 16.2 12.2624 12.2625C15.8624 8.66248 17.3249 4.04998 15.2999 2.02498C14.6249 1.34998 13.7249 1.12498 12.7124 1.12498Z" fill="#D5F8EC"/>
<path d="M29.925 29.8125L28.35 30.7125C28.125 30.825 27.9 31.05 27.675 31.275C27.45 31.5 27.3375 31.725 27.3375 32.0625C27.225 32.4 27.225 32.625 27.225 32.9625C27.225 33.3 27.3375 33.525 27.5625 33.75C27.675 33.975 27.9 34.2 28.125 34.425C28.35 34.65 28.575 34.7625 28.9125 34.7625C29.25 34.875 29.5875 34.875 29.8125 34.875C30.0375 34.875 30.375 34.7625 30.6 34.5375L32.175 33.6375L29.925 29.8125Z" fill="#D5F8EC"/>
<path d="M25.3124 15.6375C26.2124 16.425 26.9999 17.4375 27.4499 18.5625C27.8999 19.6875 28.2374 20.925 28.2374 22.1625C28.2374 28.0125 22.4999 32.2875 16.8749 30.6C23.5124 29.025 27.4499 22.1625 25.3124 15.6375Z" fill="#D5F8EC"/>
<path d="M2.24991 30.15C2.24991 30.7125 2.47491 31.3875 2.92491 31.725C3.37491 32.175 3.93741 32.4 4.49991 32.4C5.06241 32.4 5.73741 32.175 6.07491 31.725C6.52491 31.275 6.74991 30.7125 6.74991 30.15C6.74991 28.9125 4.49991 25.875 4.49991 25.875C4.49991 25.875 2.24991 28.8 2.24991 30.15Z" fill="#D5F8EC"/>
<path d="M30.7124 10.4625C30.1499 10.9125 29.4749 11.25 28.6874 11.25C27.8999 11.25 27.2249 10.9125 26.6624 10.35C26.2124 9.89998 25.8749 9.22498 25.8749 8.43748C25.8749 6.97498 28.6874 3.37498 28.6874 3.37498C28.6874 3.37498 31.4999 6.97498 31.4999 8.43748C31.4999 9.22498 31.1624 9.89998 30.7124 10.4625Z" fill="#D5F8EC"/>
<path fill-rule="evenodd" clip-rule="evenodd" d="M16.9874 6.86246C17.6624 4.49996 17.3249 2.58746 16.0874 1.23746C14.8499 -0.112542 12.8249 -0.337542 10.4624 0.337458C6.86238 1.46246 4.27488 4.27496 4.27488 4.27496C2.36238 6.18746 1.01238 8.32496 0.337378 10.4625C-0.900122 14.7375 1.34988 17.325 4.49988 17.325C9.22488 17.325 15.4124 12.0375 16.9874 6.86246ZM6.18738 14.7375C4.72488 15.1875 3.48738 15.075 2.81238 14.4C1.57488 13.1625 2.36238 9.78746 5.06238 6.63746L10.5749 12.15C9.11238 13.3875 7.64988 14.2875 6.18738 14.7375ZM6.74988 5.06246C8.21238 3.82496 9.67488 2.92496 11.1374 2.47496C12.5999 2.02496 13.8374 2.13746 14.5124 2.81246C15.7499 4.04996 14.9624 7.42496 12.2624 10.575L6.74988 5.06246Z" fill="#2FDAA0"/>
<path fill-rule="evenodd" clip-rule="evenodd" d="M27.8999 17.0999C26.2124 14.1749 23.0624 12.2624 19.4624 12.2624C13.9499 12.2624 9.56241 16.7624 9.56241 22.1624C9.56241 24.0749 10.1249 25.7624 11.0249 27.2249C11.8124 28.5749 13.0499 29.8124 14.3999 30.5999C15.8624 31.4999 17.6624 32.0624 19.4624 32.0624C24.9749 32.0624 29.3624 27.5624 29.3624 22.1624C29.3624 20.2499 28.7999 18.5624 27.8999 17.0999ZM12.2624 24.8624C12.2211 24.6974 12.1648 24.5475 12.1099 24.4016C12.0151 24.1497 11.9249 23.9099 11.9249 23.6249C11.5874 22.1624 11.8124 20.5874 12.3749 19.2374C12.9374 17.8874 13.9499 16.6499 15.1874 15.7499C16.4249 14.8499 17.8874 14.5124 19.4624 14.5124C20.3624 14.5124 21.3749 14.7374 22.2749 15.0749L12.2624 24.8624ZM13.9499 27.5624C13.8374 27.4499 13.753 27.3374 13.6687 27.2249C13.5843 27.1124 13.4999 26.9999 13.3874 26.8874L24.1874 16.0874C24.2999 16.1999 24.4124 16.2843 24.5249 16.3687C24.6374 16.4531 24.7499 16.5374 24.8624 16.6499C24.9749 16.7624 25.0593 16.8749 25.1437 16.9874C25.228 17.0999 25.3124 17.2124 25.4249 17.3249L14.6249 28.1249C14.5124 28.0124 14.3999 27.9281 14.2874 27.8437C14.1749 27.7593 14.0624 27.6749 13.9499 27.5624ZM25.7624 26.4374C24.9749 27.6749 23.7374 28.6874 22.2749 29.2499C20.9249 29.8124 19.3499 30.0374 17.8874 29.6999C17.4374 29.5874 16.9874 29.4749 16.6499 29.3624L26.5499 19.4624C26.8874 20.3624 27.1124 21.2624 27.1124 22.2749C27.1124 23.6249 26.6624 25.1999 25.7624 26.4374Z" fill="#2FDAA0"/>
<path fill-rule="evenodd" clip-rule="evenodd" d="M33.5249 27.5624C34.3124 27.7874 35.0999 28.3499 35.5499 29.1374C35.9999 29.9249 36.1124 30.8249 35.7749 31.7249C35.5499 32.5124 34.9874 33.2999 34.1999 33.7499C34.2183 33.7499 34.2307 33.7499 34.2321 33.7539C34.2351 33.762 34.1917 33.7868 34.0593 33.8624C33.8624 33.9749 33.4687 34.1999 32.7374 34.6499C32.6747 34.6918 32.608 34.7375 32.5368 34.7864C32.2248 35.0004 31.8243 35.2753 31.2749 35.5499C30.7124 35.8874 30.1499 35.9999 29.5874 35.9999C28.9124 35.9999 28.1249 35.7749 27.5624 35.3249C26.9999 34.8749 26.5499 34.1999 26.3249 33.5249C26.0999 32.8499 26.0999 32.0624 26.4374 31.3874C26.7749 30.5999 27.2249 30.0374 27.8999 29.6999L30.9374 27.8999C31.7249 27.4499 32.6249 27.3374 33.5249 27.5624ZM29.2499 33.6374C29.5874 33.7499 29.8124 33.7499 30.1499 33.6374L30.7124 33.1874L29.5874 31.1624L29.0249 31.4999C28.6874 31.6124 28.5749 31.8374 28.4624 32.1749C28.3499 32.5124 28.4624 32.8499 28.5749 33.0749C28.6874 33.4124 28.9124 33.5249 29.2499 33.6374ZM33.1874 31.8374C33.5249 31.7249 33.6374 31.4999 33.7499 31.1624C33.7499 30.8249 33.7499 30.4874 33.6374 30.2624C33.5249 29.9249 33.2999 29.8124 32.9624 29.6999C32.6249 29.5874 32.2874 29.6999 32.0624 29.8124L31.4999 30.1499L32.6249 32.1749L33.1874 31.8374Z" fill="#2FDAA0"/>
<path fill-rule="evenodd" clip-rule="evenodd" d="M9.44991 27C8.77491 25.875 8.09991 24.8625 7.53741 24.1875C7.42491 23.9625 7.19991 23.85 6.97491 23.7375C6.52491 23.5125 5.96241 23.5125 5.51241 23.7375C5.28741 23.85 5.06241 23.9625 4.94991 24.1875C4.27491 24.8625 3.48741 25.875 2.81241 27C2.47491 27.5625 2.24991 28.125 2.02491 28.6875C1.79991 29.25 1.68741 29.8125 1.68741 30.2625C1.68741 31.5 2.13741 32.625 3.03741 33.4125C3.93741 34.2 5.06241 34.7625 6.18741 34.7625C6.74991 34.7625 7.31241 34.65 7.87491 34.425C8.43741 34.2 8.88741 33.8625 9.33741 33.4125C9.78741 32.9625 10.1249 32.5125 10.3499 31.95C10.5749 31.3875 10.6874 30.825 10.6874 30.2625C10.6874 29.8125 10.5749 29.25 10.3499 28.6875C10.1249 28.125 9.78741 27.5625 9.44991 27ZM8.21241 31.1625C8.19074 31.2058 8.16908 31.2533 8.14661 31.3026C8.05241 31.5091 7.94408 31.7467 7.76241 31.8375C7.67865 31.8794 7.59488 31.9368 7.50531 31.9983C7.35429 32.1019 7.18676 32.2169 6.97491 32.2875C6.18741 32.625 5.17491 32.4 4.49991 31.8375C4.04991 31.3875 3.82491 30.825 3.82491 30.2625C3.82491 30.2625 3.82491 30.0375 4.04991 29.475C4.1416 29.3374 4.2333 29.1625 4.33261 28.9731C4.47698 28.6977 4.63745 28.3916 4.83741 28.125C5.28741 27.3375 5.73741 26.6625 6.18741 26.1C6.63741 26.6625 7.08741 27.3375 7.53741 28.125C7.87491 28.6875 8.09991 29.1375 8.21241 29.5875C8.43741 30.15 8.43741 30.375 8.43741 30.375C8.43741 30.5397 8.37712 30.7044 8.30068 30.9133C8.2727 30.9897 8.24255 31.0721 8.21241 31.1625Z" fill="#2FDAA0"/>
<path fill-rule="evenodd" clip-rule="evenodd" d="M34.4249 4.61249C34.9874 5.39999 35.3249 6.07499 35.5499 6.74999C35.8874 7.53749 35.9999 8.21249 35.9999 8.66249C35.9999 9.44999 35.8874 10.125 35.5499 10.8C35.4975 10.8874 35.445 10.9775 35.3918 11.069C35.1021 11.5668 34.7875 12.1074 34.3124 12.4875C33.8624 12.9375 33.1874 13.275 32.5124 13.6125C31.8374 13.95 31.1624 14.0625 30.3749 14.0625C28.9124 14.0625 27.4499 13.5 26.4374 12.4875C25.3124 11.475 24.7499 10.125 24.7499 8.66249C24.7499 8.21249 24.8624 7.53749 25.0874 6.74999C25.4249 6.07499 25.7624 5.39999 26.2124 4.61249C26.9999 3.26249 27.8999 2.02499 28.5749 1.23749C28.7999 1.01249 29.0249 0.787491 29.3624 0.674991C29.9249 0.449991 30.7124 0.449991 31.2749 0.674991C31.6124 0.787491 31.8374 1.01249 32.0624 1.23749C32.2115 1.44623 32.3922 1.68659 32.592 1.95228C33.1459 2.68894 33.8462 3.62033 34.4249 4.61249ZM33.0999 10.575C33.2749 10.35 33.4499 10.125 33.5249 9.89999C33.5442 9.82278 33.5635 9.74889 33.5822 9.67717C33.6727 9.33087 33.7499 9.03528 33.7499 8.66249C33.7499 8.66249 33.7499 8.32499 33.5249 7.76249C33.2999 7.2 33.0749 6.63748 32.6249 5.96249C31.8864 4.69656 30.9501 3.52955 30.4653 2.92529C30.4331 2.88516 30.4029 2.84752 30.3749 2.81249C29.9249 3.37499 29.0249 4.61249 28.2374 5.84999C28.1204 6.08401 28.0034 6.30451 27.8911 6.51617C27.6794 6.91502 27.4844 7.28251 27.3374 7.64999C26.9999 8.21249 26.9999 8.54999 26.9999 8.66249C26.9999 9.56249 27.3374 10.2375 28.0124 10.9125C28.9124 11.8125 30.4874 12.0375 31.7249 11.5875C32.1749 11.475 32.5124 11.25 32.8499 10.9125C32.9249 10.8 33.0124 10.6875 33.0999 10.575Z" fill="#2FDAA0"/>
</g>
<defs>
<clipPath id="clip0_1528_11572">
<rect width="36" height="36" fill="white"/>
</clipPath>
</defs>
</svg>
