<svg width="26" height="26" viewBox="0 0 26 26" fill="none" xmlns="http://www.w3.org/2000/svg">
<g clip-path="url(#clip0_1510_12188)">
<path d="M9.18116 0.812504C9.50616 5.6875 5.93116 9.99375 1.13741 10.5625C2.27491 12.675 6.01241 11.7 8.85616 8.85625C11.4562 6.25625 12.5124 2.925 11.0499 1.4625C10.5624 0.975004 9.91241 0.812504 9.18116 0.812504Z" fill="#D5F8EC"/>
<path d="M21.6125 21.5313L20.475 22.1813C20.3125 22.2625 20.15 22.425 19.9875 22.5875C19.825 22.75 19.7437 22.9125 19.7437 23.1563C19.6625 23.4 19.6625 23.5625 19.6625 23.8062C19.6625 24.05 19.7437 24.2125 19.9062 24.375C19.9875 24.5375 20.15 24.7 20.3125 24.8625C20.475 25.025 20.6375 25.1063 20.8812 25.1063C21.125 25.1875 21.3687 25.1875 21.5312 25.1875C21.6937 25.1875 21.9375 25.1063 22.1 24.9438L23.2375 24.2938L21.6125 21.5313Z" fill="#D5F8EC"/>
<path d="M18.2811 11.2938C18.9311 11.8625 19.4999 12.5938 19.8249 13.4063C20.1499 14.2188 20.3936 15.1125 20.3936 16.0063C20.3936 20.2313 16.2499 23.3188 12.1874 22.1C16.9811 20.9625 19.8249 16.0063 18.2811 11.2938Z" fill="#D5F8EC"/>
<path d="M1.62489 21.775C1.62489 22.1813 1.78739 22.6688 2.11239 22.9125C2.43739 23.2375 2.84364 23.4 3.24989 23.4C3.65614 23.4 4.14364 23.2375 4.38739 22.9125C4.71239 22.5875 4.87489 22.1813 4.87489 21.775C4.87489 20.8813 3.24989 18.6875 3.24989 18.6875C3.24989 18.6875 1.62489 20.8 1.62489 21.775Z" fill="#D5F8EC"/>
<path d="M22.1811 7.55625C21.7749 7.88125 21.2874 8.125 20.7186 8.125C20.1499 8.125 19.6624 7.88125 19.2561 7.475C18.9311 7.15 18.6874 6.6625 18.6874 6.09375C18.6874 5.0375 20.7186 2.4375 20.7186 2.4375C20.7186 2.4375 22.7499 5.0375 22.7499 6.09375C22.7499 6.6625 22.5061 7.15 22.1811 7.55625Z" fill="#D5F8EC"/>
<path fill-rule="evenodd" clip-rule="evenodd" d="M12.2686 4.95624C12.7561 3.24999 12.5124 1.86874 11.6186 0.89374C10.7249 -0.08126 9.26237 -0.24376 7.55612 0.24374C4.95612 1.05624 3.08737 3.08749 3.08737 3.08749C1.70612 4.46874 0.731121 6.01249 0.243621 7.55624C-0.650129 10.6437 0.974871 12.5125 3.24987 12.5125C6.66237 12.5125 11.1311 8.69374 12.2686 4.95624ZM4.46862 10.6437C3.41237 10.9687 2.51862 10.8875 2.03112 10.4C1.13737 9.50624 1.70612 7.06874 3.65612 4.79374L7.63737 8.77499C6.58112 9.66874 5.52487 10.3187 4.46862 10.6437ZM4.87487 3.65624C5.93112 2.76249 6.98737 2.11249 8.04362 1.78749C9.09987 1.46249 9.99362 1.54374 10.4811 2.03124C11.3749 2.92499 10.8061 5.36249 8.85612 7.63749L4.87487 3.65624Z" fill="#2FDAA0"/>
<path fill-rule="evenodd" clip-rule="evenodd" d="M20.1499 12.35C18.9311 10.2375 16.6561 8.85622 14.0561 8.85622C10.0749 8.85622 6.90614 12.1062 6.90614 16.0062C6.90614 17.3875 7.31239 18.6062 7.96239 19.6625C8.53114 20.6375 9.42489 21.5312 10.3999 22.1C11.4561 22.75 12.7561 23.1562 14.0561 23.1562C18.0374 23.1562 21.2061 19.9062 21.2061 16.0062C21.2061 14.625 20.7999 13.4062 20.1499 12.35ZM8.85614 17.9562C8.82634 17.837 8.78562 17.7288 8.74599 17.6234C8.67756 17.4415 8.61239 17.2683 8.61239 17.0625C8.36864 16.0062 8.53114 14.8687 8.93739 13.8937C9.34364 12.9187 10.0749 12.025 10.9686 11.375C11.8624 10.725 12.9186 10.4812 14.0561 10.4812C14.7061 10.4812 15.4374 10.6437 16.0874 10.8875L8.85614 17.9562ZM10.0749 19.9062C9.99364 19.825 9.93271 19.7437 9.87177 19.6625C9.81084 19.5812 9.74988 19.5 9.66864 19.4187L17.4686 11.6187C17.5499 11.7 17.6311 11.7609 17.7124 11.8218C17.7936 11.8828 17.8749 11.9437 17.9561 12.025C18.0374 12.1062 18.0983 12.1875 18.1593 12.2687C18.2202 12.35 18.2811 12.4312 18.3624 12.5125L10.5624 20.3125C10.4811 20.2312 10.3999 20.1703 10.3186 20.1093C10.2374 20.0484 10.1561 19.9875 10.0749 19.9062ZM18.6061 19.0937C18.0374 19.9875 17.1436 20.7187 16.0874 21.125C15.1124 21.5312 13.9749 21.6937 12.9186 21.45C12.5937 21.3687 12.2686 21.2875 12.0249 21.2062L19.1749 14.0562C19.4186 14.7062 19.5811 15.3562 19.5811 16.0875C19.5811 17.0625 19.2561 18.2 18.6061 19.0937Z" fill="#2FDAA0"/>
<path fill-rule="evenodd" clip-rule="evenodd" d="M24.2124 19.9062C24.7811 20.0687 25.3499 20.475 25.6749 21.0437C25.9999 21.6125 26.0811 22.2625 25.8374 22.9125C25.6749 23.4812 25.2686 24.05 24.6999 24.375C24.7132 24.375 24.7221 24.375 24.7232 24.3778C24.7253 24.3837 24.694 24.4016 24.5983 24.4562C24.4562 24.5375 24.1718 24.7 23.6436 25.025C23.5983 25.0552 23.5502 25.0882 23.4987 25.1235C23.2735 25.2781 22.9842 25.4766 22.5874 25.675C22.1811 25.9187 21.7749 26 21.3686 26C20.8811 26 20.3124 25.8375 19.9061 25.5125C19.4999 25.1875 19.1749 24.7 19.0124 24.2125C18.8499 23.725 18.8499 23.1562 19.0936 22.6687C19.3374 22.1 19.6624 21.6937 20.1499 21.45L22.3436 20.15C22.9124 19.825 23.5624 19.7437 24.2124 19.9062ZM21.1249 24.2937C21.3687 24.375 21.5311 24.375 21.7749 24.2937L22.1811 23.9687L21.3686 22.5062L20.9624 22.75C20.7186 22.8312 20.6374 22.9937 20.5561 23.2375C20.4749 23.4812 20.5561 23.725 20.6374 23.8875C20.7186 24.1312 20.8812 24.2125 21.1249 24.2937ZM23.9686 22.9937C24.2124 22.9125 24.2936 22.75 24.3749 22.5062C24.3749 22.2625 24.3749 22.0187 24.2936 21.8562C24.2124 21.6125 24.0499 21.5312 23.8061 21.45C23.5624 21.3687 23.3187 21.45 23.1561 21.5312L22.7499 21.775L23.5624 23.2375L23.9686 22.9937Z" fill="#2FDAA0"/>
<path fill-rule="evenodd" clip-rule="evenodd" d="M6.82489 19.5C6.33739 18.6875 5.84989 17.9563 5.44364 17.4688C5.36239 17.3063 5.19989 17.225 5.03739 17.1438C4.71239 16.9813 4.30614 16.9813 3.98114 17.1438C3.81864 17.225 3.65614 17.3063 3.57489 17.4688C3.08739 17.9563 2.51864 18.6875 2.03114 19.5C1.78739 19.9063 1.62489 20.3125 1.46239 20.7188C1.29989 21.125 1.21864 21.5313 1.21864 21.8563C1.21864 22.75 1.54364 23.5625 2.19364 24.1313C2.84364 24.7 3.65614 25.1063 4.46864 25.1063C4.87489 25.1063 5.28114 25.025 5.68739 24.8625C6.09364 24.7 6.41864 24.4563 6.74364 24.1313C7.06864 23.8063 7.31239 23.4813 7.47489 23.075C7.63739 22.6688 7.71864 22.2625 7.71864 21.8563C7.71864 21.5313 7.63739 21.125 7.47489 20.7188C7.31239 20.3125 7.06864 19.9063 6.82489 19.5ZM5.93114 22.5063C5.9155 22.5376 5.89985 22.5719 5.88362 22.6074C5.81559 22.7566 5.73735 22.9282 5.60614 22.9938C5.54565 23.024 5.48515 23.0655 5.42046 23.1099C5.31139 23.1847 5.1904 23.2678 5.03739 23.3188C4.46864 23.5625 3.73739 23.4 3.24989 22.9938C2.92489 22.6688 2.76239 22.2625 2.76239 21.8563C2.76239 21.8563 2.76239 21.6938 2.92489 21.2875C2.99112 21.1882 3.05734 21.0618 3.12907 20.925C3.23334 20.7261 3.34923 20.5051 3.49364 20.3125C3.81864 19.7438 4.14364 19.2563 4.46864 18.85C4.79364 19.2563 5.11864 19.7438 5.44364 20.3125C5.68739 20.7188 5.84989 21.0438 5.93114 21.3688C6.09364 21.775 6.09364 21.9375 6.09364 21.9375C6.09364 22.0565 6.0501 22.1754 5.99489 22.3263C5.97469 22.3815 5.95291 22.441 5.93114 22.5063Z" fill="#2FDAA0"/>
<path fill-rule="evenodd" clip-rule="evenodd" d="M24.8624 3.33126C25.2686 3.90001 25.5124 4.38751 25.6749 4.87501C25.9186 5.44376 25.9999 5.93126 25.9999 6.25626C25.9999 6.82501 25.9186 7.31251 25.6749 7.80001C25.637 7.86313 25.5992 7.9282 25.5607 7.99432C25.3515 8.35381 25.1243 8.74425 24.7811 9.01876C24.4561 9.34376 23.9686 9.58751 23.4811 9.83126C22.9936 10.075 22.5061 10.1563 21.9374 10.1563C20.8811 10.1563 19.8249 9.75001 19.0936 9.01876C18.2811 8.28751 17.8749 7.31251 17.8749 6.25626C17.8749 5.93126 17.9561 5.44376 18.1186 4.87501C18.3624 4.38751 18.6061 3.90001 18.9311 3.33126C19.4999 2.35626 20.1499 1.46251 20.6374 0.893764C20.7999 0.731264 20.9624 0.568764 21.2061 0.487514C21.6124 0.325014 22.1811 0.325014 22.5874 0.487514C22.8311 0.568764 22.9936 0.731264 23.1561 0.893764C23.2638 1.04452 23.3943 1.21811 23.5386 1.41C23.9386 1.94203 24.4444 2.61471 24.8624 3.33126ZM23.9054 7.63752C24.0318 7.47502 24.1582 7.31251 24.2124 7.15001C24.2263 7.09425 24.2403 7.04088 24.2538 6.98909C24.3191 6.73898 24.3749 6.5255 24.3749 6.25626C24.3749 6.25626 24.3749 6.01251 24.2124 5.60626C24.0499 5.20002 23.8874 4.79376 23.5624 4.30626C23.0291 3.39198 22.3528 2.54914 22.0027 2.11273C21.9794 2.08375 21.9576 2.05656 21.9374 2.03126C21.6124 2.43751 20.9624 3.33126 20.3936 4.22501C20.3091 4.39403 20.2246 4.55328 20.1435 4.70614C19.9906 4.9942 19.8498 5.25961 19.7436 5.52501C19.4999 5.93126 19.4999 6.17501 19.4999 6.25626C19.4999 6.90626 19.7436 7.39376 20.2311 7.88126C20.8811 8.53126 22.0186 8.69376 22.9124 8.36876C23.2374 8.28751 23.4811 8.12501 23.7249 7.88126C23.7791 7.80001 23.8423 7.71877 23.9054 7.63752Z" fill="#2FDAA0"/>
</g>
<defs>
<clipPath id="clip0_1510_12188">
<rect width="26" height="26" fill="white"/>
</clipPath>
</defs>
</svg>
