<svg width="18" height="18" viewBox="0 0 18 18" fill="none" xmlns="http://www.w3.org/2000/svg">
<path d="M17.25 3V4.5C17.25 4.89782 17.092 5.27936 16.8107 5.56066C16.5294 5.84196 16.1478 6 15.75 6C15.3522 6 14.9706 5.84196 14.6893 5.56066C14.408 5.27936 14.25 4.89782 14.25 4.5V3C14.25 2.60218 14.408 2.22064 14.6893 1.93934C14.9706 1.65804 15.3522 1.5 15.75 1.5C16.1478 1.5 16.5294 1.65804 16.8107 1.93934C17.092 2.22064 17.25 2.60218 17.25 3V3ZM1.5 4.5H12C12.1989 4.5 12.3897 4.42098 12.5303 4.28033C12.671 4.13968 12.75 3.94891 12.75 3.75C12.75 3.55109 12.671 3.36032 12.5303 3.21967C12.3897 3.07902 12.1989 3 12 3H1.5C1.30109 3 1.11032 3.07902 0.96967 3.21967C0.829018 3.36032 0.75 3.55109 0.75 3.75C0.75 3.94891 0.829018 4.13968 0.96967 4.28033C1.11032 4.42098 1.30109 4.5 1.5 4.5V4.5ZM16.5 8.25H9C8.80109 8.25 8.61032 8.32902 8.46967 8.46967C8.32902 8.61032 8.25 8.80109 8.25 9C8.25 9.19891 8.32902 9.38968 8.46967 9.53033C8.61032 9.67098 8.80109 9.75 9 9.75H16.5C16.6989 9.75 16.8897 9.67098 17.0303 9.53033C17.171 9.38968 17.25 9.19891 17.25 9C17.25 8.80109 17.171 8.61032 17.0303 8.46967C16.8897 8.32902 16.6989 8.25 16.5 8.25ZM1.5 9.75H3.75C3.75 10.1478 3.90804 10.5294 4.18934 10.8107C4.47064 11.092 4.85218 11.25 5.25 11.25C5.64782 11.25 6.02936 11.092 6.31066 10.8107C6.59196 10.5294 6.75 10.1478 6.75 9.75V8.25C6.75 7.85218 6.59196 7.47064 6.31066 7.18934C6.02936 6.90804 5.64782 6.75 5.25 6.75C4.85218 6.75 4.47064 6.90804 4.18934 7.18934C3.90804 7.47064 3.75 7.85218 3.75 8.25H1.5C1.30109 8.25 1.11032 8.32902 0.96967 8.46967C0.829018 8.61032 0.75 8.80109 0.75 9C0.75 9.19891 0.829018 9.38968 0.96967 9.53033C1.11032 9.67098 1.30109 9.75 1.5 9.75V9.75ZM9 13.5H1.5C1.30109 13.5 1.11032 13.579 0.96967 13.7197C0.829018 13.8603 0.75 14.0511 0.75 14.25C0.75 14.4489 0.829018 14.6397 0.96967 14.7803C1.11032 14.921 1.30109 15 1.5 15H9C9.19891 15 9.38968 14.921 9.53033 14.7803C9.67098 14.6397 9.75 14.4489 9.75 14.25C9.75 14.0511 9.67098 13.8603 9.53033 13.7197C9.38968 13.579 9.19891 13.5 9 13.5ZM16.5 13.5H14.25C14.25 13.1022 14.092 12.7206 13.8107 12.4393C13.5294 12.158 13.1478 12 12.75 12C12.3522 12 11.9706 12.158 11.6893 12.4393C11.408 12.7206 11.25 13.1022 11.25 13.5V15C11.25 15.3978 11.408 15.7794 11.6893 16.0607C11.9706 16.342 12.3522 16.5 12.75 16.5C13.1478 16.5 13.5294 16.342 13.8107 16.0607C14.092 15.7794 14.25 15.3978 14.25 15H16.5C16.6989 15 16.8897 14.921 17.0303 14.7803C17.171 14.6397 17.25 14.4489 17.25 14.25C17.25 14.0511 17.171 13.8603 17.0303 13.7197C16.8897 13.579 16.6989 13.5 16.5 13.5Z" fill="#2FDAA0"/>
</svg>
