<svg width="26" height="26" viewBox="0 0 26 26" fill="none" xmlns="http://www.w3.org/2000/svg">
<g clip-path="url(#clip0_1510_12185)">
<path d="M19.572 6.28332C19.572 7.51109 19.2109 8.73887 18.6332 9.74998L16.1776 7.29443C17.4776 15.2389 12.2776 22.6778 4.62205 24.3389C5.05538 24.6278 5.48871 24.9166 5.99427 24.9889C6.49982 25.1333 7.00538 25.1333 7.51093 25.0611C8.01649 24.9889 8.52205 24.7722 8.95538 24.5555C9.38871 24.2666 9.74982 23.9055 10.0387 23.4722L11.3387 21.5222C12.8554 19.2111 14.8054 17.3333 17.1887 15.8166L17.5498 15.6C18.4165 15.0944 19.1387 14.4444 19.8609 13.7222C20.222 13.3611 20.4387 12.8555 20.4387 12.2778C20.4387 11.7722 20.222 11.1944 19.8609 10.8333H19.572L19.7887 11.05L21.0887 9.74998C21.3054 9.53332 21.4498 9.1722 21.4498 8.81109C21.4498 8.44998 21.3054 8.16109 21.0887 7.8722L19.572 6.28332Z" fill="#D5F8EC"/>
<path d="M25.2054 3.10554L22.8943 0.794427L22.0276 1.66109C22.4609 2.38332 22.6776 3.10554 22.6776 3.9722C22.6776 4.76665 22.4609 5.56109 22.0276 6.28332L25.2054 3.10554Z" fill="#D5F8EC"/>
<path d="M13.2887 15.0222L14.8054 13.5055C14.9498 13.3611 15.0943 13.1444 15.1665 13C15.2387 12.7833 15.3109 12.5666 15.3109 12.35C15.3109 12.1333 15.2387 11.8444 15.1665 11.6278C15.022 11.4111 14.8776 11.1944 14.7332 11.05C14.5165 10.9055 14.2998 10.7611 14.0832 10.7611C13.8665 10.6889 13.5776 10.6889 13.3609 10.7611C13.722 12.1333 13.722 13.65 13.2887 15.0222Z" fill="#D5F8EC"/>
<path d="M25.9999 3.10556C25.9999 2.88889 25.9277 2.67222 25.7832 2.52778L23.4721 0.216667C23.3277 0.0722222 23.111 0 22.8943 0C22.6777 0 22.461 0.0722222 22.3166 0.216667L18.4166 4.11667C18.2721 4.04444 18.1277 3.9 17.9832 3.82778C17.6943 3.75556 17.4777 3.68333 17.1888 3.68333C16.8999 3.68333 16.611 3.75556 16.3943 3.82778C16.1054 3.9 15.8888 4.11667 15.6721 4.26111L14.8054 5.12778C14.7332 5.12778 14.7332 5.05556 14.661 5.05556C14.2999 4.91111 13.9388 4.83889 13.5777 4.83889C13.2166 4.83889 12.8554 4.91111 12.4943 5.05556C12.1332 5.2 11.8443 5.41667 11.5554 5.70556C10.8332 6.42778 10.111 7.29444 9.60545 8.16111L9.38878 8.52222C8.01656 10.7611 6.13878 12.6389 3.97212 14.0833L2.02212 15.3833C-0.361217 16.9722 -0.650106 20.2944 1.29989 22.3167L3.75545 24.7722C5.77767 26.7944 9.09989 26.4333 10.6888 24.05L11.9888 22.1C13.4332 19.9333 15.311 18.0556 17.5499 16.6833L17.911 16.4667C18.7777 15.8889 19.6443 15.2389 20.3666 14.5167C20.6554 14.2278 20.8721 13.9389 21.0166 13.5778C21.161 13.2167 21.2332 12.8556 21.2332 12.4944C21.2332 12.1333 21.161 11.7722 21.0166 11.4111C21.0166 11.3389 20.9443 11.3389 20.9443 11.2667L21.811 10.4C22.0277 10.1833 22.1721 9.96667 22.2443 9.67778C22.3166 9.38889 22.3888 9.17222 22.3888 8.88333C22.3888 8.59444 22.3166 8.30556 22.2443 8.08889C22.1721 7.94444 22.0999 7.8 21.9554 7.65556L25.8555 3.75556C26 3.61111 25.9999 3.32222 25.9999 3.10556ZM16.8277 5.41667C16.8999 5.34444 17.0443 5.27222 17.1888 5.27222C17.3332 5.27222 17.4777 5.34444 17.5499 5.41667L20.5832 8.45C20.6554 8.52222 20.7277 8.66667 20.7277 8.81111C20.7277 8.95556 20.6554 9.1 20.5832 9.17222L19.861 9.89444L16.1054 6.13889L16.8277 5.41667ZM8.37767 23.9778C8.01656 24.1944 7.58323 24.3389 7.22212 24.3389C6.78878 24.4111 6.35545 24.3389 5.99434 24.1944C5.56101 24.05 5.19989 23.8333 4.91101 23.5444L2.45545 21.0889C2.16656 20.8 1.94989 20.4389 1.80545 20.0056C1.66101 19.5722 1.58878 19.2111 1.66101 18.7778C1.73323 18.3444 1.80545 17.9833 2.02212 17.6222C2.16656 17.3333 2.45545 17.1167 2.67212 16.9L9.09989 23.3278C8.88323 23.5444 8.66656 23.7611 8.37767 23.9778ZM19.211 13.2889C18.561 13.9389 17.8388 14.5167 17.0443 15.0222L16.611 15.2389C14.2277 16.7556 12.1332 18.7778 10.5443 21.1611L10.0388 21.9556L4.04434 15.9611L4.83878 15.4556C7.22212 13.8667 9.24434 11.8444 10.761 9.38889L10.9777 9.02778C11.4832 8.23333 12.061 7.51111 12.711 6.86111C12.9277 6.64444 13.2166 6.5 13.5777 6.5C13.8666 6.5 14.2277 6.64444 14.4443 6.86111L19.211 11.6278C19.4277 11.8444 19.5721 12.1333 19.5721 12.4944C19.5721 12.7111 19.4277 13.0722 19.211 13.2889ZM20.7999 6.35556L19.6443 5.2L22.8943 1.95L24.0499 3.10556L20.7999 6.35556Z" fill="#2FDAA0"/>
<path d="M15.311 10.6889C15.0943 10.4722 14.8054 10.2556 14.5166 10.1833C14.2277 10.0389 13.9388 9.96667 13.5777 9.96667C13.2888 9.96667 12.9277 10.0389 12.6388 10.1833C12.3499 10.3278 12.061 10.4722 11.8443 10.6889L8.44989 14.0833C8.01656 14.5167 7.72767 15.1667 7.72767 15.8167C7.72767 16.4667 8.01656 17.1167 8.44989 17.55C8.88323 17.9833 9.53323 18.2722 10.1832 18.2722C10.8332 18.2722 11.4832 17.9833 11.9166 17.55L15.2388 14.2278C15.4554 14.0111 15.6721 13.7222 15.7443 13.4333C15.8888 13.1444 15.961 12.8556 15.961 12.4944C15.961 12.1333 15.8888 11.8444 15.7443 11.5556C15.5999 11.2667 15.5999 10.9056 15.311 10.6889ZM13.2888 11.6278C13.361 11.5556 13.5054 11.5556 13.5777 11.5556C13.7221 11.5556 13.8666 11.6278 14.011 11.7C14.1554 11.7722 14.2277 11.9167 14.2999 12.0611C14.3721 12.2056 14.3721 12.35 14.3721 12.4944C14.3721 12.6389 14.2277 12.7833 14.1554 12.9278L13.9388 13.1444L12.7832 11.9889L12.9999 11.7722C13.1443 11.7 13.2166 11.7 13.2888 11.6278ZM12.2054 14.95L11.0499 13.7944L11.6277 13.2167L12.7832 14.3722L12.2054 14.95ZM10.2554 16.5389C10.0388 16.5389 9.82212 16.4667 9.67767 16.3222C9.53323 16.1778 9.46101 15.9611 9.46101 15.7444C9.46101 15.5278 9.53323 15.3111 9.67767 15.1667L9.89434 14.95L11.0499 16.1056L10.8332 16.3222C10.6888 16.4667 10.4721 16.5389 10.2554 16.5389Z" fill="#2FDAA0"/>
</g>
<defs>
<clipPath id="clip0_1510_12185">
<rect width="26" height="26" fill="white"/>
</clipPath>
</defs>
</svg>
