<svg width="36" height="36" viewBox="0 0 36 36" fill="none" xmlns="http://www.w3.org/2000/svg">
<g clip-path="url(#clip0_946_26708)">
<path d="M27.0998 8.69998C27.0998 10.4 26.5998 12.1 25.7998 13.5L22.3998 10.1C24.1998 21.1 16.9998 31.4 6.39978 33.7C6.99978 34.1 7.59978 34.5 8.29978 34.6C8.99978 34.8 9.69977 34.8 10.3998 34.7C11.0998 34.6 11.7998 34.3 12.3998 34C12.9998 33.6 13.4998 33.1 13.8998 32.5L15.6998 29.8C17.7998 26.6 20.4998 24 23.7998 21.9L24.2998 21.6C25.4998 20.9 26.4998 20 27.4998 19C27.9998 18.5 28.2998 17.8 28.2998 17C28.2998 16.3 27.9998 15.5 27.4998 15H27.0998L27.3998 15.3L29.1998 13.5C29.4998 13.2 29.6998 12.7 29.6998 12.2C29.6998 11.7 29.4998 11.3 29.1998 10.9L27.0998 8.69998Z" fill="#D5F8EC"/>
<path d="M34.8998 4.29998L31.6998 1.09998L30.4998 2.29998C31.0998 3.29998 31.3998 4.29998 31.3998 5.49998C31.3998 6.59998 31.0998 7.69998 30.4998 8.69998L34.8998 4.29998Z" fill="#D5F8EC"/>
<path d="M18.3998 20.8L20.4998 18.7C20.6998 18.5 20.8998 18.2 20.9998 18C21.0998 17.7 21.1998 17.4 21.1998 17.1C21.1998 16.8 21.0998 16.4 20.9998 16.1C20.7998 15.8 20.5998 15.5 20.3998 15.3C20.0998 15.1 19.7998 14.9 19.4998 14.9C19.1998 14.8 18.7998 14.8 18.4998 14.9C18.9998 16.8 18.9998 18.9 18.3998 20.8Z" fill="#D5F8EC"/>
<path d="M35.9999 4.3C35.9999 4 35.8999 3.7 35.6999 3.5L32.4999 0.3C32.2999 0.1 31.9999 0 31.6999 0C31.3999 0 31.0999 0.1 30.8999 0.3L25.4999 5.7C25.2999 5.6 25.0999 5.4 24.8999 5.3C24.4999 5.2 24.1999 5.1 23.7999 5.1C23.3999 5.1 22.9999 5.2 22.6999 5.3C22.2999 5.4 21.9999 5.7 21.6999 5.9L20.4999 7.1C20.3999 7.1 20.3999 7 20.2999 7C19.7999 6.8 19.2999 6.7 18.7999 6.7C18.2999 6.7 17.7999 6.8 17.2999 7C16.7999 7.2 16.3999 7.5 15.9999 7.9C14.9999 8.9 13.9999 10.1 13.2999 11.3L12.9999 11.8C11.0999 14.9 8.49987 17.5 5.49987 19.5L2.79987 21.3C-0.500127 23.5 -0.900128 28.1 1.79987 30.9L5.19987 34.3C7.99987 37.1 12.5999 36.6 14.7999 33.3L16.5999 30.6C18.5999 27.6 21.1999 25 24.2999 23.1L24.7999 22.8C25.9999 22 27.1999 21.1 28.1999 20.1C28.5999 19.7 28.8999 19.3 29.0999 18.8C29.2999 18.3 29.3999 17.8 29.3999 17.3C29.3999 16.8 29.2999 16.3 29.0999 15.8C29.0999 15.7 28.9999 15.7 28.9999 15.6L30.1999 14.4C30.4999 14.1 30.6999 13.8 30.7999 13.4C30.8999 13 30.9999 12.7 30.9999 12.3C30.9999 11.9 30.8999 11.5 30.7999 11.2C30.6999 11 30.5999 10.8 30.3999 10.6L35.7999 5.2C36 5 35.9999 4.6 35.9999 4.3ZM23.2999 7.5C23.3999 7.4 23.5999 7.3 23.7999 7.3C23.9999 7.3 24.1999 7.4 24.2999 7.5L28.4999 11.7C28.5999 11.8 28.6999 12 28.6999 12.2C28.6999 12.4 28.5999 12.6 28.4999 12.7L27.4999 13.7L22.2999 8.5L23.2999 7.5ZM11.5999 33.2C11.0999 33.5 10.4999 33.7 9.99987 33.7C9.39987 33.8 8.79987 33.7 8.29987 33.5C7.69987 33.3 7.19987 33 6.79987 32.6L3.39987 29.2C2.99987 28.8 2.69987 28.3 2.49987 27.7C2.29987 27.1 2.19987 26.6 2.29987 26C2.39987 25.4 2.49987 24.9 2.79987 24.4C2.99987 24 3.39987 23.7 3.69987 23.4L12.5999 32.3C12.2999 32.6 11.9999 32.9 11.5999 33.2ZM26.5999 18.4C25.6999 19.3 24.6999 20.1 23.5999 20.8L22.9999 21.1C19.6999 23.2 16.7999 26 14.5999 29.3L13.8999 30.4L5.59987 22.1L6.69987 21.4C9.99987 19.2 12.7999 16.4 14.8999 13L15.1999 12.5C15.8999 11.4 16.6999 10.4 17.5999 9.5C17.8999 9.2 18.2999 9 18.7999 9C19.1999 9 19.6999 9.2 19.9999 9.5L26.5999 16.1C26.8999 16.4 27.0999 16.8 27.0999 17.3C27.0999 17.6 26.8999 18.1 26.5999 18.4ZM28.7999 8.8L27.1999 7.2L31.6999 2.7L33.2999 4.3L28.7999 8.8Z" fill="#2FDAA0"/>
<path d="M21.1999 14.8C20.8999 14.5 20.4999 14.2 20.0999 14.1C19.6999 13.9 19.2999 13.8 18.7999 13.8C18.3999 13.8 17.8999 13.9 17.4999 14.1C17.0999 14.3 16.6999 14.5 16.3999 14.8L11.6999 19.5C11.0999 20.1 10.6999 21 10.6999 21.9C10.6999 22.8 11.0999 23.7 11.6999 24.3C12.2999 24.9 13.1999 25.3 14.0999 25.3C14.9999 25.3 15.8999 24.9 16.4999 24.3L21.0999 19.7C21.3999 19.4 21.6999 19 21.7999 18.6C21.9999 18.2 22.0999 17.8 22.0999 17.3C22.0999 16.8 21.9999 16.4 21.7999 16C21.5999 15.6 21.5999 15.1 21.1999 14.8ZM18.3999 16.1C18.4999 16 18.6999 16 18.7999 16C18.9999 16 19.1999 16.1 19.3999 16.2C19.5999 16.3 19.6999 16.5 19.7999 16.7C19.8999 16.9 19.8999 17.1 19.8999 17.3C19.8999 17.5 19.6999 17.7 19.5999 17.9L19.2999 18.2L17.6999 16.6L17.9999 16.3C18.1999 16.2 18.2999 16.2 18.3999 16.1ZM16.8999 20.7L15.2999 19.1L16.0999 18.3L17.6999 19.9L16.8999 20.7ZM14.1999 22.9C13.8999 22.9 13.5999 22.8 13.3999 22.6C13.1999 22.4 13.0999 22.1 13.0999 21.8C13.0999 21.5 13.1999 21.2 13.3999 21L13.6999 20.7L15.2999 22.3L14.9999 22.6C14.7999 22.8 14.4999 22.9 14.1999 22.9Z" fill="#2FDAA0"/>
</g>
<defs>
<clipPath id="clip0_946_26708">
<rect width="36" height="36" fill="white"/>
</clipPath>
</defs>
</svg>
