<svg width="40" height="25" viewBox="0 0 40 25" fill="none" xmlns="http://www.w3.org/2000/svg">
<path d="M35.5881 23.1618H20.0587V24.9265H35.5881V23.1618Z" fill="#06D6A0"/>
<path d="M30.6176 8.95593H25.1765C24.6891 8.95593 24.2941 9.35095 24.2941 9.83831C24.2941 10.3257 24.6891 10.7207 25.1765 10.7207H30.6176C31.105 10.7207 31.5 10.3257 31.5 9.83831C31.5 9.35095 31.105 8.95593 30.6176 8.95593Z" fill="#06D6A0"/>
<path d="M34.7353 13.0735H25.1765C24.6891 13.0735 24.2941 13.4686 24.2941 13.9559C24.2941 14.4433 24.6891 14.8383 25.1765 14.8383H34.7353C35.2227 14.8383 35.6176 14.4433 35.6176 13.9559C35.6176 13.4686 35.2226 13.0735 34.7353 13.0735Z" fill="#06D6A0"/>
<path d="M39.4799 1.18095C39.1631 1.03859 38.7929 1.09479 38.5328 1.32448L36.062 3.51035L33.5881 1.29828C33.2531 0.998557 32.7467 0.998557 32.4117 1.29828L29.9411 3.50768L27.4702 1.29828C27.1352 0.998557 26.629 0.998557 26.294 1.29828L23.8202 3.51035L21.3493 1.32448C21.0896 1.09507 20.719 1.03887 20.4022 1.18095C20.0858 1.32359 19.8823 1.63831 19.8823 1.98537V17.6912H16.8823C16.3949 17.6912 15.9999 18.0862 15.9999 18.5736V20.7206C15.9999 23.0397 17.8867 24.9265 20.2057 24.9265V23.1618C18.8596 23.1618 17.7646 22.0665 17.7646 20.7206V19.456H31.5881V20.7206C31.5881 23.0397 33.4749 24.9265 35.794 24.9265C38.1131 24.9265 39.9998 23.0398 39.9998 20.7207V1.98532C39.9999 1.63826 39.7964 1.32359 39.4799 1.18095ZM38.2352 20.7206C38.2352 22.0665 37.1399 23.1618 35.794 23.1618C34.4482 23.1618 33.3529 22.0665 33.3529 20.7206V18.5736C33.3529 18.0862 32.9579 17.6912 32.4705 17.6912H21.647V3.94385L23.239 5.3524C23.5743 5.64888 24.0784 5.64738 24.4117 5.34916L26.8822 3.13976L29.3528 5.34888C29.6879 5.6486 30.1943 5.6486 30.5293 5.34888L33.0002 3.13948L35.4708 5.34888C35.8043 5.6471 36.3084 5.64827 36.6434 5.35212L38.2352 3.9439V20.7206Z" fill="#06D6A0"/>
<path d="M1.48389 11.508H6.77589V5.74H9.01589V11.508H14.3079V13.72H9.01589V19.516H6.77589V13.72H1.48389V11.508Z" fill="#06D6A0"/>
</svg>
