<svg width="26" height="26" viewBox="0 0 26 26" fill="none" xmlns="http://www.w3.org/2000/svg">
<g clip-path="url(#clip0_1510_12182)">
<path d="M11.4111 9.96668V8.01668C11.4111 7.72779 11.2666 7.4389 11.05 7.22223C10.8333 7.00556 10.5444 6.86112 10.2555 6.86112H9.60552C9.31663 8.01668 8.66663 9.02779 7.79996 9.89445H11.4111V9.96668Z" fill="#D5F8EC"/>
<path d="M9.09996 2.96112C9.09996 2.60001 9.02774 2.2389 8.81108 1.95001C8.66663 3.03334 8.2333 4.04445 7.51108 4.91112C6.78885 5.77779 5.84996 6.35557 4.83885 6.71668V7.00556H9.09996V2.96112Z" fill="#D5F8EC"/>
<path d="M24.8444 11.7722C24.6277 11.5556 24.3389 11.4111 24.05 11.4111H23.4C23.1111 12.5667 22.4611 13.5778 21.5944 14.4445H25.1333V12.4945C25.2055 12.2778 25.0611 11.9889 24.8444 11.7722Z" fill="#D5F8EC"/>
<path d="M22.8944 7.51112C22.8944 7.15001 22.8222 6.7889 22.6055 6.50001C22.4611 7.58334 22.0277 8.59445 21.3055 9.46112C20.5833 10.3278 19.6444 10.9056 18.6333 11.2667V11.5556H22.8944V7.51112Z" fill="#D5F8EC"/>
<path d="M7.72774 21.8111H10.6889C9.5333 23.2556 8.01663 24.4111 6.35552 25.2056H11.4833C11.9166 25.2056 12.35 25.0611 12.6389 24.7C12.9277 24.4111 13.1444 23.9778 13.1444 23.5445V15.1667C12.9277 16.6111 12.2777 18.0556 11.3389 19.2111C10.3277 20.3667 9.09996 21.3056 7.72774 21.8111Z" fill="#D5F8EC"/>
<path d="M7.51108 19.0667C7.72774 19.2833 8.08885 19.4278 8.44996 19.4278C8.81108 19.4278 9.09996 19.2833 9.38885 19.0667C9.60552 18.85 9.74996 18.4889 9.74996 18.1278C9.74996 17.4056 8.44996 15.6722 8.44996 15.6722C8.44996 15.6722 7.14996 17.4056 7.14996 18.1278C7.07774 18.4889 7.22219 18.85 7.51108 19.0667Z" fill="#D5F8EC"/>
<path d="M19.4277 22.8222C19.5 22.9667 19.6444 23.1111 19.7166 23.2556V24.1222C19.7166 24.4111 19.8611 24.7 20.0055 24.8445C20.2222 25.0611 20.5111 25.1333 20.7277 25.1333C20.9444 25.1333 21.3055 24.9889 21.45 24.8445C21.6666 24.6278 21.7389 24.3389 21.7389 24.1222V23.2556C22.1 22.8945 22.2444 22.4611 22.2444 22.0278V20.0056C21.6666 21.2333 20.6555 22.2445 19.4277 22.8222Z" fill="#D5F8EC"/>
<path d="M12.2056 9.24445V8.01667C12.2056 7.51111 11.9889 7.00556 11.6278 6.64444C11.2667 6.28333 10.7611 6.06667 10.2556 6.06667H9.89444V2.96111C9.89444 2.16667 9.60556 1.44444 9.02778 0.866667C8.52222 0.288889 7.72778 0 6.93333 0C6.13889 0 5.41667 0.288889 4.83889 0.866667C4.33333 1.44444 4.04444 2.16667 4.04444 2.96111V6.13889H3.68333C3.17778 6.13889 2.67222 6.35556 2.31111 6.71667C1.95 7.07778 1.73333 7.58333 1.73333 8.08889V9.31667C1.37222 9.46111 1.01111 9.60556 0.722222 9.89444C0.288889 10.3278 0 10.9778 0 11.6278V23.6167C0 24.2667 0.288889 24.9167 0.722222 25.35C1.15556 25.7833 1.80556 26.0722 2.45556 26.0722H11.4833C12.1333 26.0722 12.7833 25.7833 13.2167 25.35C13.65 24.9167 13.9389 24.2667 13.9389 23.6167V11.5556C13.9389 10.9056 13.65 10.2556 13.2167 9.82222C12.9278 9.60556 12.5667 9.38889 12.2056 9.24445ZM5.63333 2.96111C5.63333 2.6 5.77778 2.31111 5.99444 2.02222C6.21111 1.80556 6.57222 1.66111 6.93333 1.66111C7.29444 1.66111 7.58333 1.80556 7.87222 2.02222C8.08889 2.23889 8.23333 2.6 8.23333 2.96111V6.13889H5.63333V2.96111ZM3.32222 8.01667C3.32222 7.94445 3.32222 7.87222 3.39444 7.8C3.46667 7.72778 3.53889 7.72778 3.61111 7.72778H10.1833C10.2556 7.72778 10.3278 7.72778 10.4 7.8C10.4722 7.87222 10.4722 7.94445 10.4722 8.01667V9.1H3.25V8.01667H3.32222ZM12.2778 20.9444H4.55V14.1556H12.2778V20.9444ZM12.2778 12.5667H3.75556C3.53889 12.5667 3.32222 12.6389 3.17778 12.7833C3.03333 12.9278 2.96111 13.1444 2.96111 13.3611V21.8111C2.96111 22.0278 3.03333 22.2444 3.17778 22.3889C3.32222 22.5333 3.53889 22.6056 3.75556 22.6056H12.2778V23.5444C12.2778 23.7611 12.2056 23.9778 12.0611 24.1222C11.9167 24.2667 11.7 24.3389 11.4833 24.3389H2.45556C2.23889 24.3389 2.02222 24.2667 1.87778 24.1222C1.73333 23.9778 1.66111 23.7611 1.66111 23.5444V11.5556C1.66111 11.3389 1.73333 11.1222 1.87778 10.9778C2.02222 10.8333 2.23889 10.7611 2.45556 10.7611H11.4111C11.6278 10.7611 11.8444 10.8333 11.9889 10.9778C12.1333 11.1222 12.2056 11.3389 12.2056 11.5556V12.5667H12.2778Z" fill="#2FDAA0"/>
<path d="M25.4222 11.1944C25.0611 10.8333 24.5556 10.6167 24.05 10.6167H23.6889V7.43889C23.6889 6.64444 23.4 5.92222 22.8222 5.34444C22.2444 4.76667 21.5222 4.47778 20.7278 4.47778C19.9333 4.47778 19.2111 4.76667 18.6333 5.34444C18.0556 5.92222 17.7667 6.64444 17.7667 7.43889V10.6167H17.4056C16.9 10.6167 16.3944 10.8333 16.0333 11.1944C15.6722 11.5556 15.4556 12.0611 15.4556 12.5667V14.5167C15.4556 14.7333 15.5278 14.95 15.6722 15.0944C15.8167 15.2389 16.0333 15.3111 16.25 15.3111H18.2722V22.0278C18.2722 22.6056 18.4167 23.1111 18.7778 23.5444V24.1222C18.7778 24.6278 18.9944 25.1333 19.3556 25.4222C19.7167 25.7833 20.15 26 20.6556 26C21.1611 26 21.6667 25.7833 21.9556 25.4222C22.2444 25.0611 22.5333 24.6278 22.5333 24.1222V23.5444C22.8944 23.1111 23.0389 22.5333 23.0389 22.0278V15.3111H25.0611C25.2778 15.3111 25.4944 15.2389 25.6389 15.0944C25.7833 14.95 25.8556 14.7333 25.8556 14.5167V12.5667C26 12.0611 25.7833 11.5556 25.4222 11.1944ZM19.4278 7.51111C19.4278 7.15 19.5722 6.86111 19.7889 6.57222C20.0056 6.35556 20.3667 6.21111 20.7278 6.21111C21.0889 6.21111 21.3778 6.35556 21.6667 6.57222C21.8833 6.78889 22.0278 7.15 22.0278 7.51111V10.6889H19.3556V7.51111H19.4278ZM21.5222 22.0278C21.5222 22.1722 21.5222 22.2444 21.45 22.3889C21.3778 22.5333 21.3056 22.6056 21.2333 22.6778C21.0889 22.8222 21.0167 23.0389 21.0167 23.2556V24.1222C21.0167 24.1944 21.0167 24.2667 20.9444 24.2667C20.8722 24.3389 20.8 24.3389 20.8 24.3389C20.7278 24.3389 20.6556 24.3389 20.6556 24.2667C20.5833 24.1944 20.5833 24.1222 20.5833 24.1222V23.2556C20.5833 23.0389 20.5111 22.8222 20.3667 22.6778C20.2944 22.6056 20.2222 22.4611 20.15 22.3889C20.0778 22.2444 20.0778 22.1722 20.0778 22.0278V19.4278H21.5944V22.0278H21.5222ZM21.5222 17.8389H20.0056V15.3833H21.5222V17.8389ZM24.4111 13.7222H17.1889V12.6389C17.1889 12.5667 17.1889 12.4944 17.2611 12.4222C17.3333 12.35 17.4056 12.35 17.4778 12.35H24.05C24.1222 12.35 24.1944 12.35 24.2667 12.4222C24.3389 12.4944 24.3389 12.5667 24.3389 12.6389V13.7222H24.4111Z" fill="#2FDAA0"/>
<path d="M8.45 20.2944C8.73889 20.2944 9.02778 20.2222 9.24444 20.15C9.53333 20.0778 9.75 19.8611 9.96667 19.7167C10.1833 19.5 10.3278 19.2833 10.4 18.9944C10.4722 18.7056 10.5444 18.4889 10.5444 18.2C10.5444 17.2611 9.53333 15.8167 9.02778 15.2389C8.95556 15.1667 8.88333 15.0944 8.73889 15.0222C8.59444 14.95 8.52222 14.95 8.37778 14.95C8.23333 14.95 8.16111 14.95 8.01667 15.0222C7.87222 15.0944 7.8 15.1667 7.72778 15.2389C7.29444 15.8167 6.21111 17.2611 6.21111 18.2C6.21111 18.7778 6.42778 19.2833 6.86111 19.7167C7.29444 20.0056 7.87222 20.2944 8.45 20.2944ZM8.45 17.1167C8.73889 17.55 8.95556 17.9833 8.95556 18.1278C8.95556 18.2722 8.88333 18.4167 8.81111 18.4889C8.73889 18.5611 8.59444 18.6333 8.45 18.6333C8.30556 18.6333 8.16111 18.5611 8.08889 18.4889C7.94444 18.4167 7.94444 18.2722 7.94444 18.1278C7.94444 17.9833 8.16111 17.55 8.45 17.1167Z" fill="#2FDAA0"/>
</g>
<defs>
<clipPath id="clip0_1510_12182">
<rect width="26" height="26" fill="white"/>
</clipPath>
</defs>
</svg>
