<svg width="9" height="14" viewBox="0 0 9 14" fill="none" xmlns="http://www.w3.org/2000/svg">
<path d="M8.30161 6.45372L2.07143 0.223657C1.92734 0.0794465 1.73498 0 1.52988 0C1.32477 0 1.13242 0.0794465 0.98832 0.223657L0.52951 0.682352C0.23096 0.981244 0.23096 1.46703 0.52951 1.76547L5.76114 6.9971L0.523706 12.2345C0.379609 12.3787 0.300049 12.571 0.300049 12.776C0.300049 12.9812 0.379609 13.1734 0.523706 13.3178L0.982515 13.7763C1.12673 13.9206 1.31897 14 1.52407 14C1.72918 14 1.92153 13.9206 2.06563 13.7763L8.30161 7.54059C8.44605 7.39592 8.52538 7.20277 8.52493 6.99744C8.52538 6.79131 8.44605 6.59827 8.30161 6.45372Z" fill="white"/>
</svg>
