<svg width="22" height="22" viewBox="0 0 22 22" fill="none" xmlns="http://www.w3.org/2000/svg">
<path d="M9.12331 18.6979C8.64481 18.6979 8.19161 18.4746 7.90121 18.0896L3.97091 12.8965C3.84939 12.7361 3.76068 12.5533 3.70984 12.3587C3.659 12.164 3.64703 11.9612 3.67461 11.7619C3.70219 11.5626 3.76879 11.3706 3.87059 11.1971C3.97239 11.0235 4.1074 10.8717 4.26791 10.7504C4.42835 10.6285 4.61127 10.5395 4.80617 10.4885C5.00107 10.4375 5.20413 10.4254 5.4037 10.453C5.60327 10.4806 5.79544 10.5473 5.96919 10.6493C6.14293 10.7513 6.29484 10.8866 6.41621 11.0474L9.00231 14.4618L15.5044 4.02058C15.72 3.67584 16.0636 3.4307 16.4598 3.33894C16.8559 3.24717 17.2723 3.31627 17.6175 3.53108C18.3358 3.97768 18.5569 4.92368 18.1081 5.64308L10.4257 17.9741C10.2946 18.1855 10.1138 18.3618 9.89911 18.4875C9.68441 18.6133 9.44227 18.6847 9.19371 18.6957C9.16951 18.6979 9.14751 18.6979 9.12331 18.6979Z" fill="white"/>
</svg>
