<svg width="16" height="16" viewBox="0 0 16 16" fill="none" xmlns="http://www.w3.org/2000/svg">
<path d="M8 12C7.86839 12.0008 7.73793 11.9755 7.61609 11.9258C7.49426 11.876 7.38344 11.8027 7.29 11.71L3.29 7.71C3.12617 7.5187 3.04057 7.27262 3.05029 7.02095C3.06001 6.76927 3.16434 6.53053 3.34244 6.35244C3.52053 6.17434 3.75927 6.07001 4.01095 6.06029C4.26262 6.05057 4.5087 6.13617 4.7 6.3L8 9.59L11.29 6.3C11.4813 6.13617 11.7274 6.05057 11.9791 6.06029C12.2307 6.07001 12.4695 6.17434 12.6476 6.35244C12.8257 6.53053 12.93 6.76927 12.9397 7.02095C12.9494 7.27262 12.8638 7.5187 12.7 7.71L8.7 11.71C8.51374 11.8947 8.26234 11.9989 8 12Z" fill="white"/>
<path d="M8 12C7.73478 12 7.48043 11.8946 7.29289 11.7071C7.10536 11.5196 7 11.2652 7 11V1C7 0.734784 7.10536 0.48043 7.29289 0.292893C7.48043 0.105357 7.73478 0 8 0C8.26522 0 8.51957 0.105357 8.70711 0.292893C8.89464 0.48043 9 0.734784 9 1V11C9 11.2652 8.89464 11.5196 8.70711 11.7071C8.51957 11.8946 8.26522 12 8 12ZM15 16H1C0.734784 16 0.48043 15.8946 0.292893 15.7071C0.105357 15.5196 0 15.2652 0 15C0 14.7348 0.105357 14.4804 0.292893 14.2929C0.48043 14.1054 0.734784 14 1 14H15C15.2652 14 15.5196 14.1054 15.7071 14.2929C15.8946 14.4804 16 14.7348 16 15C16 15.2652 15.8946 15.5196 15.7071 15.7071C15.5196 15.8946 15.2652 16 15 16Z" fill="white"/>
</svg>
