<svg width="25" height="36" viewBox="0 0 25 36" fill="none" xmlns="http://www.w3.org/2000/svg">
<path d="M15.9 2.79998C15.9 2.39998 15.7 1.89998 15.4 1.59998C15.1 1.29998 14.7 1.09998 14.2 1.09998H13.2C12.6 3.59998 11.1 5.89998 9.09995 7.59998H15.9V2.79998Z" fill="#D5F8EC"/>
<path d="M20.9 24C21.1 25.6 20.7 27.2 19.7 28.5C18.7 29.8 17.3 30.7 15.7 31V28.5C15.7 27.7 15.8999 26.9 16.2999 26.2C16.6999 25.5 17.3 24.9 18 24.5V16.9H15.1C14.9 19.2 14.3 21.4 13.5 23.6C13.6 23.7 13.6 23.7 13.7 23.8C13.8 25.2 13.5 26.6 12.8 27.8C12.1 29 11.1 30 9.79995 30.7C9.59995 30.6 9.39995 30.5 9.19995 30.4C8.49995 32.2 7.19995 33.8 5.69995 34.9H16.1C16.6 34.9 17.1 34.7 17.5 34.3C17.9 33.9 18.1 33.4 18.1 32.9V31.4H18.5C19.7 31.4 20.8 30.9 21.7 30.1C22.5 29.3 23 28.1 23 26.9V24H20.9ZM15.1 25.6C15.1 25.7 15.2 25.7 15.2 25.8C15.2 25.8 15.2 25.8 15.2 25.9C15.2 25.8 15.2 25.7 15.1 25.6Z" fill="#D5F8EC"/>
<path d="M23.9 23.3C23.7 23.1 23.4 23 23.1 23H20.3C19.9 23 19.4 23.1 19 23.2V14.5C19 14 18.9 13.6 18.7 13.1C18.5 12.7 18.3 12.3 17.9 12L15.3 9.7V7.9C15.4 7.9 15.6 7.8 15.6 7.7C15.9 7.5 16 7.2 16 7V2.6C16 1.9 15.8 1.3 15.4 0.8C15 0.3 14.4 0 13.9 0H5.1C4.6 0 4 0.3 3.6 0.8C3.2 1.2 3 1.9 3 2.6V7C3 7.3 3.1 7.5 3.3 7.7C3.4 7.8 3.5 7.9 3.6 7.9V9.6L1 11.9C0.7 12.2 0.4 12.6 0.2 13C0.1 13.5 0 13.9 0 14.4V32.9C0 33.7 0.3 34.5 0.8 35.1C1.3 35.7 2 36 2.7 36H16.2C16.9 36 17.6 35.7 18.1 35.1C18.6 34.5 18.9 33.7 18.9 32.9V32.5C20.2 32.4 21.5 31.8 22.5 30.9C23.6 29.8 24.1 28.4 24.1 26.9V24C24.2 23.7 24.1 23.5 23.9 23.3ZM4.7 2.6C4.7 2.5 4.7 2.3 4.8 2.2C4.9 2.1 5 2.1 5.1 2.1H6V4.1C6 4.3 6.1 4.6 6.2 4.7C6.3 4.8 6.5 5 6.7 5C6.9 5 7.1 4.9 7.2 4.7C7.3 4.5 7.4 4.3 7.4 4.1V2.1H9V4.1C9 4.3 9.1 4.6 9.2 4.7C9.3 4.8 9.5 5 9.7 5C9.9 5 10.1 4.9 10.2 4.7C10.3 4.5 10.4 4.3 10.4 4.1V2.1H12V4.1C12 4.3 12.1 4.6 12.2 4.7C12.3 4.8 12.5 5 12.7 5C12.9 5 13.1 4.9 13.2 4.7C13.3 4.5 13.4 4.3 13.4 4.1V2.1H13.9C14 2.1 14.1 2.2 14.2 2.3C14.3 2.4 14.3 2.5 14.3 2.7V6.1H4.7V2.6ZM2 14.4C2 14.3 2 14.1 2.1 14C2.1 13.9 2.2 13.8 2.3 13.7L5.2 11C5.3 10.9 5.4 10.8 5.5 10.6C5.6 10.4 5.6 10.3 5.6 10.1V8.3H13.4V10.2C13.4 10.4 13.4 10.5 13.5 10.7C13.6 10.9 13.7 11 13.8 11.1L16.7 13.8C16.8 13.9 16.9 14 16.9 14.1C16.9 14.2 17 14.3 17 14.5V16H2V14.4ZM2 18H17V24C16.8 24.2 16.5 24.4 16.3 24.6C16.2 24.7 16.1 24.8 16 24.9C15.6 24.2 15.2 23.6 14.6 23C13.2 21.6 11.2 20.8 9.2 20.8H6.2C5.9 20.8 5.6 20.9 5.4 21.1C5.2 21.3 5.1 21.6 5.1 21.9V24.9C5.1 26.4 5.5 27.8 6.3 29H2V18ZM14.7 28.5L12.2 26.1C12 25.9 11.7 25.8 11.4 25.8C11.1 25.8 10.8 25.9 10.6 26.1C10.4 26.3 10.3 26.6 10.3 26.9C10.3 27.2 10.4 27.5 10.6 27.7L13.1 30.2H12.9C11.5 30.2 10.1 29.6 9.1 28.6C8.1 27.6 7.5 26.2 7.5 24.8V23H9.3C10.7 23 12.1 23.6 13.1 24.6C14.1 25.6 14.7 27 14.7 28.4V28.5ZM17 32.9C17 33.1 16.9 33.3 16.8 33.5C16.7 33.7 16.5 33.8 16.3 33.8H2.7C2.5 33.8 2.3 33.7 2.2 33.5C2.1 33.3 2 33.1 2 32.9V31H8.4C9.7 32 11.3 32.5 12.9 32.5H17V32.9ZM22 26.9C22 27.8 21.6 28.7 21 29.3C20.4 29.9 19.5 30.3 18.6 30.3H18.5L19.7 29.1C19.9 28.9 20 28.6 20 28.3C20 28 19.9 27.7 19.7 27.5C19.5 27.3 19.2 27.2 18.9 27.2C18.6 27.2 18.3 27.3 18.1 27.5L16.9 28.7V28.6C16.9 27.7 17.3 26.8 17.9 26.2C18.5 25.6 19.4 25.2 20.3 25.2H22V26.9Z" fill="#2FDAA0"/>
</svg>
