<svg width="36" height="36" viewBox="0 0 36 36" fill="none" xmlns="http://www.w3.org/2000/svg">
<path d="M26.773 26.3C26.9724 28.1 26.5736 29.9 25.477 31.3C24.3804 32.7 22.885 33.7 21.0905 34V31.1C21.0905 30.4 20.9908 29.7 20.7914 29C20.9908 28.3 21.3896 27.7 21.8881 27.1C22.6856 26.3 23.9816 25.6 25.3773 25.1V16H21.6887C21.1902 18.8 18.8973 22.5 16.405 24.1C17.701 24.8 18.7976 25.7 19.4954 26.7C19.5951 26.8 19.6948 27 19.7945 27.1C19.5951 26.7 19.2961 26.4 18.997 26.1C19.0967 27.7 18.7976 29.2 18.0001 30.6C17.2025 32 16.1059 33.1 14.7102 33.8C15.7071 34.3 16.7041 34.5 17.8007 34.5H24.181C25.477 34.5 26.773 34 27.6702 33C28.5674 32.1 29.1656 30.8 29.1656 29.5V26.4H26.773V26.3Z" fill="#D5F8EC"/>
<path d="M25.3773 2.69998C25.3773 2.29998 25.1779 1.89998 24.8788 1.59998C24.5798 1.29998 24.181 1.09998 23.7822 1.09998H22.9847C22.7853 2.29998 22.3865 3.39998 21.7884 4.39998C21.1902 5.39998 20.293 6.19998 19.3958 6.89998H25.3773V2.69998Z" fill="#D5F8EC"/>
<path d="M30.0629 25.4C29.8635 25.1 29.4647 25 29.1657 25H27.3712C27.3712 24.9 27.4709 24.8 27.4709 24.7V9.3C27.4709 8.7 27.2715 8.1 26.9724 7.6C27.2715 7.5 27.4709 7.2 27.4709 6.9V2.7C27.4709 2 27.0721 1.3 26.474 0.8C25.8758 0.3 24.9786 0 24.0813 0H8.92811C8.03088 0 7.13365 0.3 6.5355 0.8C5.93734 1.3 5.53857 2 5.53857 2.7V6.9C5.53857 7.2 5.73796 7.5 5.93734 7.7C5.73796 8.2 5.53857 8.8 5.53857 9.3V32.6C5.53857 33.5 5.93734 34.3 6.5355 35C7.13365 35.6 8.03088 36 8.92811 36H24.2807C25.8758 35.9 27.4709 35.3 28.6672 34.1C29.8635 32.9 30.5613 31.2 30.5613 29.5V26.3C30.4617 26 30.362 25.6 30.0629 25.4ZM8.13057 8.6C8.32996 8.4 8.62904 8.3 8.92811 8.3H24.181C24.4801 8.3 24.7792 8.4 24.9786 8.6C25.178 8.8 25.2777 9.1 25.2777 9.4V14H7.73181V9.3C7.73181 9.1 7.93119 8.8 8.13057 8.6ZM8.42965 2.7C8.42965 2.6 8.52934 2.5 8.62904 2.4C8.72873 2.3 8.82842 2.3 9.02781 2.3H24.181C24.2807 2.3 24.4801 2.3 24.5798 2.4C24.6795 2.5 24.7792 2.6 24.7792 2.7V5.8H21.7884V4.8C21.7884 4.5 21.6887 4.2 21.4893 4C21.29 3.8 20.9909 3.7 20.6918 3.7C20.3927 3.7 19.994 3.8 19.7946 4C19.5952 4.2 19.4955 4.5 19.4955 4.8V5.8H18.0998V4.8C18.0998 4.5 18.0001 4.2 17.8007 4C17.6013 3.8 17.3023 3.7 17.0032 3.7C16.7041 3.7 16.405 3.8 16.2057 4C16.0063 4.2 15.9066 4.5 15.9066 4.8V5.8H14.4112V4.8C14.4112 4.5 14.3115 4.2 14.1121 4C13.813 3.8 13.514 3.7 13.2149 3.7C12.9158 3.7 12.7164 3.8 12.4173 4C12.218 4.2 12.1183 4.5 12.1183 4.8V5.8H8.42965V2.7ZM8.92811 33.8C8.62904 33.8 8.32996 33.7 8.13057 33.5C7.93119 33.3 7.8315 33 7.8315 32.7V16.2H25.2777V24.6C25.2777 24.7 25.2777 24.8 25.3773 24.9C23.882 25 22.4863 25.7 21.4893 26.8C21.3897 26.9 21.3897 26.9 21.3897 27C21.0906 26.4 20.5921 25.9 20.1933 25.4C18.5983 23.8 16.5047 22.9 14.2118 22.9H10.8223C10.5232 22.9 10.1244 23 9.92504 23.3C9.62596 23.6 9.52627 23.9 9.52627 24.3V27.6C9.52627 29.8 10.4235 32 12.0186 33.6C12.1183 33.7 12.218 33.8 12.3177 33.8H8.92811ZM19.4955 30.7L17.5017 28.4C17.3023 28.2 17.0032 28 16.7041 28C16.405 28 16.106 28.1 15.9066 28.4C15.6075 28.6 15.5078 29 15.5078 29.3C15.5078 29.7 15.6075 30 15.8069 30.2L18.5983 33.4H17.9004C16.3053 33.4 14.81 32.8 13.7133 31.7C12.6167 30.6 12.0186 29.1 12.0186 27.5V25.5H14.0124C15.6075 25.5 17.1029 26.1 18.1995 27.2C18.8973 27.9 19.3958 28.8 19.6949 29.7C19.6949 30.1 19.5952 30.4 19.4955 30.7ZM27.8697 29.5C27.8697 30.5 27.4709 31.5 26.773 32.2C26.0752 32.9 25.0783 33.3 24.0813 33.3H23.9817L25.2777 32C25.477 31.8 25.6764 31.4 25.5767 31.1C25.5767 30.8 25.477 30.5 25.178 30.2C24.9786 30 24.6795 29.8 24.2807 29.8C23.9817 29.8 23.6826 29.9 23.3835 30.1L22.4863 31.2C22.4863 30.8 22.3866 30.4 22.3866 30C22.586 29.5 22.885 29.1 23.2838 28.7C23.9817 28 24.9786 27.6 25.9755 27.6H27.8697V29.5Z" fill="#2FDAA0"/>
</svg>
