<svg width="26" height="26" viewBox="0 0 26 26" fill="none" xmlns="http://www.w3.org/2000/svg">
<path d="M15.448 2.0222C15.448 1.73332 15.304 1.3722 15.088 1.15554C14.872 0.938871 14.584 0.794427 14.224 0.794427H13.504C13.072 2.59998 11.992 4.26109 10.552 5.48887H15.448V2.0222Z" fill="#D5F8EC"/>
<path d="M19.048 17.3333C19.192 18.4889 18.904 19.6444 18.184 20.5833C17.464 21.5222 16.456 22.1722 15.304 22.3889V20.5833C15.304 20.0055 15.448 19.4278 15.736 18.9222C16.024 18.4166 16.456 17.9833 16.96 17.6944V12.2055H14.872C14.728 13.8666 14.296 15.4555 13.72 17.0444C13.792 17.1166 13.792 17.1166 13.864 17.1889C13.936 18.2 13.72 19.2111 13.216 20.0778C12.712 20.9444 11.992 21.6666 11.056 22.1722C10.912 22.1 10.768 22.0278 10.624 21.9555C10.12 23.2555 9.18397 24.4111 8.10397 25.2055H15.592C15.952 25.2055 16.312 25.0611 16.6 24.7722C16.888 24.4833 17.032 24.1222 17.032 23.7611V22.6778H17.32C18.184 22.6778 18.976 22.3166 19.624 21.7389C20.2 21.1611 20.56 20.2944 20.56 19.4278V17.3333H19.048ZM14.872 18.4889C14.872 18.5611 14.944 18.5611 14.944 18.6333C14.944 18.6333 14.944 18.6333 14.944 18.7055C14.944 18.6333 14.944 18.5611 14.872 18.4889Z" fill="#D5F8EC"/>
<path d="M21.208 16.8278C21.064 16.6833 20.848 16.6111 20.632 16.6111H18.616C18.328 16.6111 17.968 16.6833 17.68 16.7556V10.4722C17.68 10.1111 17.608 9.82222 17.464 9.46111C17.32 9.17222 17.176 8.88333 16.888 8.66667L15.016 7.00556V5.70556C15.088 5.70556 15.232 5.63333 15.232 5.56111C15.448 5.41667 15.52 5.2 15.52 5.05556V1.87778C15.52 1.37222 15.376 0.938889 15.088 0.577778C14.8 0.216667 14.368 0 14.008 0H7.672C7.312 0 6.88 0.216667 6.592 0.577778C6.304 0.866667 6.16 1.37222 6.16 1.87778V5.05556C6.16 5.27222 6.232 5.41667 6.376 5.56111C6.448 5.63333 6.52 5.70556 6.592 5.70556V6.93333L4.72 8.59444C4.504 8.81111 4.288 9.1 4.144 9.38889C4.072 9.75 4 10.0389 4 10.4V23.7611C4 24.3389 4.216 24.9167 4.576 25.35C4.936 25.7833 5.44 26 5.944 26H15.664C16.168 26 16.672 25.7833 17.032 25.35C17.392 24.9167 17.608 24.3389 17.608 23.7611V23.4722C18.544 23.4 19.48 22.9667 20.2 22.3167C20.992 21.5222 21.352 20.5111 21.352 19.4278V17.3333C21.424 17.1167 21.352 16.9722 21.208 16.8278ZM7.384 1.87778C7.384 1.80556 7.384 1.66111 7.456 1.58889C7.528 1.51667 7.6 1.51667 7.672 1.51667H8.32V2.96111C8.32 3.10556 8.392 3.32222 8.464 3.39444C8.536 3.46667 8.68 3.61111 8.824 3.61111C8.968 3.61111 9.112 3.53889 9.184 3.39444C9.256 3.25 9.328 3.10556 9.328 2.96111V1.51667H10.48V2.96111C10.48 3.10556 10.552 3.32222 10.624 3.39444C10.696 3.46667 10.84 3.61111 10.984 3.61111C11.128 3.61111 11.272 3.53889 11.344 3.39444C11.416 3.25 11.488 3.10556 11.488 2.96111V1.51667H12.64V2.96111C12.64 3.10556 12.712 3.32222 12.784 3.39444C12.856 3.46667 13 3.61111 13.144 3.61111C13.288 3.61111 13.432 3.53889 13.504 3.39444C13.576 3.25 13.648 3.10556 13.648 2.96111V1.51667H14.008C14.08 1.51667 14.152 1.58889 14.224 1.66111C14.296 1.73333 14.296 1.80556 14.296 1.95V4.40556H7.384V1.87778ZM5.44 10.4C5.44 10.3278 5.44 10.1833 5.512 10.1111C5.512 10.0389 5.584 9.96667 5.656 9.89444L7.744 7.94444C7.816 7.87222 7.888 7.8 7.96 7.65556C8.032 7.51111 8.032 7.43889 8.032 7.29444V5.99444H13.648V7.36667C13.648 7.51111 13.648 7.58333 13.72 7.72778C13.792 7.87222 13.864 7.94444 13.936 8.01667L16.024 9.96667C16.096 10.0389 16.168 10.1111 16.168 10.1833C16.168 10.2556 16.24 10.3278 16.24 10.4722V11.5556H5.44V10.4ZM5.44 13H16.24V17.3333C16.096 17.4778 15.88 17.6222 15.736 17.7667C15.664 17.8389 15.592 17.9111 15.52 17.9833C15.232 17.4778 14.944 17.0444 14.512 16.6111C13.504 15.6 12.064 15.0222 10.624 15.0222H8.464C8.248 15.0222 8.032 15.0944 7.888 15.2389C7.744 15.3833 7.672 15.6 7.672 15.8167V17.9833C7.672 19.0667 7.96 20.0778 8.536 20.9444H5.44V13ZM14.584 20.5833L12.784 18.85C12.64 18.7056 12.424 18.6333 12.208 18.6333C11.992 18.6333 11.776 18.7056 11.632 18.85C11.488 18.9944 11.416 19.2111 11.416 19.4278C11.416 19.6444 11.488 19.8611 11.632 20.0056L13.432 21.8111H13.288C12.28 21.8111 11.272 21.3778 10.552 20.6556C9.832 19.9333 9.4 18.9222 9.4 17.9111V16.6111H10.696C11.704 16.6111 12.712 17.0444 13.432 17.7667C14.152 18.4889 14.584 19.5 14.584 20.5111V20.5833ZM16.24 23.7611C16.24 23.9056 16.168 24.05 16.096 24.1944C16.024 24.3389 15.88 24.4111 15.736 24.4111H5.944C5.8 24.4111 5.656 24.3389 5.584 24.1944C5.512 24.05 5.44 23.9056 5.44 23.7611V22.3889H10.048C10.984 23.1111 12.136 23.4722 13.288 23.4722H16.24V23.7611ZM19.84 19.4278C19.84 20.0778 19.552 20.7278 19.12 21.1611C18.688 21.5944 18.04 21.8833 17.392 21.8833H17.32L18.184 21.0167C18.328 20.8722 18.4 20.6556 18.4 20.4389C18.4 20.2222 18.328 20.0056 18.184 19.8611C18.04 19.7167 17.824 19.6444 17.608 19.6444C17.392 19.6444 17.176 19.7167 17.032 19.8611L16.168 20.7278V20.6556C16.168 20.0056 16.456 19.3556 16.888 18.9222C17.32 18.4889 17.968 18.2 18.616 18.2H19.84V19.4278Z" fill="#2FDAA0"/>
</svg>
