<svg width="25" height="36" viewBox="0 0 25 36" fill="none" xmlns="http://www.w3.org/2000/svg">
<g clip-path="url(#clip0_946_26141)">
<path d="M21.2999 26.3C21.4999 28.1 21.1 29.9 20 31.3C18.9 32.7 17.4 33.7 15.6 34V31.1C15.6 30.4 15.5 29.7 15.3 29C15.5 28.3 15.9 27.7 16.4 27.1C17.2 26.3 18.5 25.6 19.9 25.1V16H16.2C15.7 18.8 13.4 22.5 10.9 24.1C12.2 24.8 13.3 25.7 14 26.7C14.1 26.8 14.2 27 14.3 27.1C14.1 26.7 13.8 26.4 13.5 26.1C13.6 27.7 13.3 29.2 12.5 30.6C11.7 32 10.6 33.1 9.19995 33.8C10.2 34.3 11.2 34.5 12.3 34.5H18.7C20 34.5 21.3 34 22.2 33C23.1 32.1 23.7 30.8 23.7 29.5V26.4H21.2999V26.3Z" fill="#D5F8EC"/>
<path d="M19.9 2.69998C19.9 2.29998 19.7 1.89998 19.4 1.59998C19.1 1.29998 18.6999 1.09998 18.2999 1.09998H17.5C17.3 2.29998 16.8999 3.39998 16.2999 4.39998C15.6999 5.39998 14.8 6.19998 13.9 6.89998H19.9V2.69998Z" fill="#D5F8EC"/>
<path d="M24.6 25.4C24.4 25.1 24 25 23.7 25H21.9C21.9 24.9 22 24.8 22 24.7V9.3C22 8.7 21.8 8.1 21.5 7.6C21.8 7.5 22 7.2 22 6.9V2.7C22 2 21.6 1.3 21 0.8C20.4 0.3 19.5 0 18.6 0H3.4C2.5 0 1.6 0.3 1 0.8C0.4 1.3 0 2 0 2.7V6.9C0 7.2 0.2 7.5 0.4 7.7C0.2 8.2 0 8.8 0 9.3V32.6C0 33.5 0.4 34.3 1 35C1.6 35.6 2.5 36 3.4 36H18.8C20.4 35.9 22 35.3 23.2 34.1C24.4 32.9 25.1 31.2 25.1 29.5V26.3C25 26 24.9 25.6 24.6 25.4ZM2.6 8.6C2.8 8.4 3.1 8.3 3.4 8.3H18.7C19 8.3 19.3 8.4 19.5 8.6C19.7 8.8 19.8 9.1 19.8 9.4V14H2.2V9.3C2.2 9.1 2.4 8.8 2.6 8.6ZM2.9 2.7C2.9 2.6 3 2.5 3.1 2.4C3.2 2.3 3.3 2.3 3.5 2.3H18.7C18.8 2.3 19 2.3 19.1 2.4C19.2 2.5 19.3 2.6 19.3 2.7V5.8H16.3V4.8C16.3 4.5 16.2 4.2 16 4C15.8 3.8 15.5 3.7 15.2 3.7C14.9 3.7 14.5 3.8 14.3 4C14.1 4.2 14 4.5 14 4.8V5.8H12.6V4.8C12.6 4.5 12.5 4.2 12.3 4C12.1 3.8 11.8 3.7 11.5 3.7C11.2 3.7 10.9 3.8 10.7 4C10.5 4.2 10.4 4.5 10.4 4.8V5.8H8.9V4.8C8.9 4.5 8.8 4.2 8.6 4C8.3 3.8 8 3.7 7.7 3.7C7.4 3.7 7.2 3.8 6.9 4C6.7 4.2 6.6 4.5 6.6 4.8V5.8H2.9V2.7ZM3.4 33.8C3.1 33.8 2.8 33.7 2.6 33.5C2.4 33.3 2.3 33 2.3 32.7V16.2H19.8V24.6C19.8 24.7 19.8 24.8 19.9 24.9C18.4 25 17 25.7 16 26.8C15.9 26.9 15.9 26.9 15.9 27C15.6 26.4 15.1 25.9 14.7 25.4C13.1 23.8 11 22.9 8.7 22.9H5.3C5 22.9 4.6 23 4.4 23.3C4.1 23.6 4 23.9 4 24.3V27.6C4 29.8 4.9 32 6.5 33.6C6.6 33.7 6.7 33.8 6.8 33.8H3.4ZM14 30.7L12 28.4C11.8 28.2 11.5 28 11.2 28C10.9 28 10.6 28.1 10.4 28.4C10.1 28.6 10 29 10 29.3C10 29.7 10.1 30 10.3 30.2L13.1 33.4H12.4C10.8 33.4 9.3 32.8 8.2 31.7C7.1 30.6 6.5 29.1 6.5 27.5V25.5H8.5C10.1 25.5 11.6 26.1 12.7 27.2C13.4 27.9 13.9 28.8 14.2 29.7C14.2 30.1 14.1 30.4 14 30.7ZM22.4 29.5C22.4 30.5 22 31.5 21.3 32.2C20.6 32.9 19.6 33.3 18.6 33.3H18.5L19.8 32C20 31.8 20.2 31.4 20.1 31.1C20.1 30.8 20 30.5 19.7 30.2C19.5 30 19.2 29.8 18.8 29.8C18.5 29.8 18.2 29.9 17.9 30.1L17 31.2C17 30.8 16.9 30.4 16.9 30C17.1 29.5 17.4 29.1 17.8 28.7C18.5 28 19.5 27.6 20.5 27.6H22.4V29.5Z" fill="#2FDAA0"/>
</g>
<defs>
<clipPath id="clip0_946_26141">
<rect width="25" height="36" fill="white"/>
</clipPath>
</defs>
</svg>
