<svg width="26" height="26" viewBox="0 0 26 26" fill="none" xmlns="http://www.w3.org/2000/svg">
<path d="M19.336 18.9944C19.48 20.2944 19.192 21.5944 18.4 22.6055C17.608 23.6166 16.528 24.3389 15.232 24.5555V22.4611C15.232 21.9555 15.16 21.45 15.016 20.9444C15.16 20.4389 15.448 20.0055 15.808 19.5722C16.384 18.9944 17.32 18.4889 18.328 18.1278V11.5555H15.664C15.304 13.5778 13.648 16.25 11.848 17.4055C12.784 17.9111 13.576 18.5611 14.08 19.2833C14.152 19.3555 14.224 19.5 14.296 19.5722C14.152 19.2833 13.936 19.0666 13.72 18.85C13.792 20.0055 13.576 21.0889 13 22.1C12.424 23.1111 11.632 23.9055 10.624 24.4111C11.344 24.7722 12.064 24.9166 12.856 24.9166H17.464C18.4 24.9166 19.336 24.5555 19.984 23.8333C20.632 23.1833 21.064 22.2444 21.064 21.3055V19.0666H19.336V18.9944Z" fill="#D5F8EC"/>
<path d="M18.328 1.94998C18.328 1.66109 18.184 1.3722 17.968 1.15554C17.752 0.938871 17.464 0.794427 17.176 0.794427H16.6C16.456 1.66109 16.168 2.45554 15.736 3.17776C15.304 3.89998 14.656 4.47776 14.008 4.98332H18.328V1.94998Z" fill="#D5F8EC"/>
<path d="M21.712 18.3444C21.568 18.1278 21.28 18.0556 21.064 18.0556H19.768C19.768 17.9833 19.84 17.9111 19.84 17.8389V6.71667C19.84 6.28333 19.696 5.85 19.48 5.48889C19.696 5.41667 19.84 5.2 19.84 4.98333V1.95C19.84 1.44444 19.552 0.938889 19.12 0.577778C18.688 0.216667 18.04 0 17.392 0H6.448C5.8 0 5.152 0.216667 4.72 0.577778C4.288 0.938889 4 1.44444 4 1.95V4.98333C4 5.2 4.144 5.41667 4.288 5.56111C4.144 5.92222 4 6.35556 4 6.71667V23.5444C4 24.1944 4.288 24.7722 4.72 25.2778C5.152 25.7111 5.8 26 6.448 26H17.536C18.688 25.9278 19.84 25.4944 20.704 24.6278C21.568 23.7611 22.072 22.5333 22.072 21.3056V18.9944C22 18.7778 21.928 18.4889 21.712 18.3444ZM5.872 6.21111C6.016 6.06667 6.232 5.99444 6.448 5.99444H17.464C17.68 5.99444 17.896 6.06667 18.04 6.21111C18.184 6.35556 18.256 6.57222 18.256 6.78889V10.1111H5.584V6.71667C5.584 6.57222 5.728 6.35556 5.872 6.21111ZM6.088 1.95C6.088 1.87778 6.16 1.80556 6.232 1.73333C6.304 1.66111 6.376 1.66111 6.52 1.66111H17.464C17.536 1.66111 17.68 1.66111 17.752 1.73333C17.824 1.80556 17.896 1.87778 17.896 1.95V4.18889H15.736V3.46667C15.736 3.25 15.664 3.03333 15.52 2.88889C15.376 2.74444 15.16 2.67222 14.944 2.67222C14.728 2.67222 14.44 2.74444 14.296 2.88889C14.152 3.03333 14.08 3.25 14.08 3.46667V4.18889H13.072V3.46667C13.072 3.25 13 3.03333 12.856 2.88889C12.712 2.74444 12.496 2.67222 12.28 2.67222C12.064 2.67222 11.848 2.74444 11.704 2.88889C11.56 3.03333 11.488 3.25 11.488 3.46667V4.18889H10.408V3.46667C10.408 3.25 10.336 3.03333 10.192 2.88889C9.976 2.74444 9.76 2.67222 9.544 2.67222C9.328 2.67222 9.184 2.74444 8.968 2.88889C8.824 3.03333 8.752 3.25 8.752 3.46667V4.18889H6.088V1.95ZM6.448 24.4111C6.232 24.4111 6.016 24.3389 5.872 24.1944C5.728 24.05 5.656 23.8333 5.656 23.6167V11.7H18.256V17.7667C18.256 17.8389 18.256 17.9111 18.328 17.9833C17.248 18.0556 16.24 18.5611 15.52 19.3556C15.448 19.4278 15.448 19.4278 15.448 19.5C15.232 19.0667 14.872 18.7056 14.584 18.3444C13.432 17.1889 11.92 16.5389 10.264 16.5389H7.816C7.6 16.5389 7.312 16.6111 7.168 16.8278C6.952 17.0444 6.88 17.2611 6.88 17.55V19.9333C6.88 21.5222 7.528 23.1111 8.68 24.2667C8.752 24.3389 8.824 24.4111 8.896 24.4111H6.448ZM14.08 22.1722L12.64 20.5111C12.496 20.3667 12.28 20.2222 12.064 20.2222C11.848 20.2222 11.632 20.2944 11.488 20.5111C11.272 20.6556 11.2 20.9444 11.2 21.1611C11.2 21.45 11.272 21.6667 11.416 21.8111L13.432 24.1222H12.928C11.776 24.1222 10.696 23.6889 9.904 22.8944C9.112 22.1 8.68 21.0167 8.68 19.8611V18.4167H10.12C11.272 18.4167 12.352 18.85 13.144 19.6444C13.648 20.15 14.008 20.8 14.224 21.45C14.224 21.7389 14.152 21.9556 14.08 22.1722ZM20.128 21.3056C20.128 22.0278 19.84 22.75 19.336 23.2556C18.832 23.7611 18.112 24.05 17.392 24.05H17.32L18.256 23.1111C18.4 22.9667 18.544 22.6778 18.472 22.4611C18.472 22.2444 18.4 22.0278 18.184 21.8111C18.04 21.6667 17.824 21.5222 17.536 21.5222C17.32 21.5222 17.104 21.5944 16.888 21.7389L16.24 22.5333C16.24 22.2444 16.168 21.9556 16.168 21.6667C16.312 21.3056 16.528 21.0167 16.816 20.7278C17.32 20.2222 18.04 19.9333 18.76 19.9333H20.128V21.3056Z" fill="#2FDAA0"/>
</svg>
