<svg width="36" height="36" viewBox="0 0 36 36" fill="none" xmlns="http://www.w3.org/2000/svg">
<path d="M34.425 26.8875C34.0875 26.2125 33.75 25.5375 33.1875 24.975L31.8375 23.625C32.0625 25.65 31.725 27.7875 30.9375 29.7C30.15 31.6125 28.9125 33.3 27.3375 34.65C31.05 35.8875 34.9875 33.075 34.9875 29.1375C34.875 28.35 34.7625 27.5625 34.425 26.8875Z" fill="#D5F8EC"/>
<path d="M20.925 19.4625C20.5875 18.675 19.9125 18.1125 19.125 17.8875C19.35 19.2375 19.2375 20.5875 18.9 21.825C18.5625 23.0625 17.8875 24.3 16.9875 25.3125L13.1625 21.4875C12.9375 24.1875 12.0375 26.8875 10.35 29.025C8.775 31.275 6.525 32.9625 3.9375 33.975C5.0625 34.65 6.3 34.875 7.65 34.7625C8.8875 34.65 10.125 33.975 11.025 33.075L17.8875 26.2125H18.225L24.525 19.9125C24.075 19.575 23.4 19.2375 22.8375 19.125C22.1625 19.2375 21.4875 19.2375 20.925 19.4625Z" fill="#D5F8EC"/>
<path d="M21.9375 10.0125C20.925 11.3625 19.575 12.15 18 12.4875V9.78747C18 8.88747 17.8875 8.09997 17.55 7.31247C17.2125 6.52497 16.7625 5.84997 16.0875 5.17497C16.2 6.52497 15.8625 7.98747 15.1875 9.22497C14.5125 10.4625 13.5 11.475 12.2625 12.15C13.1625 12.6 14.0625 12.825 15.075 12.825H20.8125C22.05 12.825 23.175 12.375 23.9625 11.475C24.8625 10.575 25.3125 9.44997 25.3125 8.32497V5.51247H23.175C23.4 7.08747 22.95 8.77497 21.9375 10.0125Z" fill="#D5F8EC"/>
<path d="M33.975 24.1875L27.1125 17.325C27 17.2125 26.8875 17.1 26.775 17.1C26.6625 16.9875 26.4375 16.9875 26.325 16.9875C26.2125 16.9875 25.9875 16.9875 25.875 17.1C25.7625 17.2125 25.65 17.2125 25.5375 17.325L24.3 18.5625C23.9625 18.45 23.7375 18.3375 23.4 18.225C22.725 18.1125 22.05 18 21.375 18.1125C21.2625 18 21.0375 17.775 20.925 17.6625V13.8375C22.3875 13.8375 23.7375 13.275 24.75 12.15C25.7625 11.1375 26.4375 9.675 26.4375 8.2125V5.5125C26.4375 5.175 26.325 4.95 26.1 4.725C25.875 4.5 25.65 4.3875 25.3125 4.3875H22.5C21.9375 4.3875 21.4875 4.5 20.925 4.6125V2.925C20.925 2.1375 20.5875 1.35 20.025 0.7875C19.575 0.3375 18.7875 0 18 0C17.2125 0 16.425 0.3375 15.8625 0.9C15.3 1.4625 14.9625 2.25 14.9625 3.0375V3.15C13.8375 2.5875 12.7125 2.25 11.475 2.25H8.55C8.325 2.25 7.9875 2.3625 7.7625 2.5875C7.5375 2.8125 7.425 3.0375 7.425 3.375V6.3C7.425 8.325 8.2125 10.2375 9.675 11.7C11.1375 13.1625 13.05 13.95 15.075 13.95V17.775C14.9625 17.8875 14.7375 18 14.625 18.225C13.95 18.1125 13.275 18.1125 12.6 18.3375C12.2625 18.45 11.925 18.5625 11.7 18.675L10.4625 17.4375C10.35 17.325 10.2375 17.2125 10.125 17.2125C10.0125 17.1 9.7875 17.1 9.675 17.1C9.5625 17.1 9.3375 17.1 9.225 17.2125C9.1125 17.325 9 17.325 8.8875 17.4375L2.025 24.3C1.0125 25.3125 0.45 26.4375 0.1125 27.7875C-0.1125 29.1375 0 30.4875 0.45 31.725C1.0125 32.9625 1.8 34.0875 3.0375 34.7625C4.1625 35.55 5.5125 35.8875 6.8625 35.8875C7.7625 35.8875 8.6625 35.6625 9.45 35.325C10.2375 34.9875 11.025 34.425 11.7 33.8625L17.8875 27.675L24.075 33.8625C25.3125 35.1 27.1125 35.8875 28.9125 35.8875C30.7125 35.8875 32.5125 35.2125 33.75 33.8625C34.9875 32.625 35.775 30.825 35.775 29.025C35.775 27.225 35.325 25.5375 33.975 24.1875ZM24.1875 6.6375V8.325C24.1875 9.225 23.85 10.125 23.175 10.6875C22.5 11.3625 21.7125 11.7 20.8125 11.7H20.7L21.825 10.575C22.05 10.35 22.1625 10.125 22.1625 9.7875C22.1625 9.45 22.05 9.225 21.825 9C21.6 8.775 21.375 8.6625 21.0375 8.6625C20.7 8.6625 20.475 8.775 20.25 9L19.125 10.125V10.0125C19.125 9.1125 19.4625 8.2125 20.1375 7.65C20.8125 6.975 21.6 6.6375 22.5 6.6375H24.1875ZM17.55 2.475C17.6625 2.3625 17.775 2.25 18 2.25C18.225 2.25 18.3375 2.3625 18.45 2.475C18.5625 2.5875 18.675 2.8125 18.675 2.925V5.85C18.5625 5.85 18.5625 5.9625 18.45 5.9625C18.3375 6.075 18.225 6.1875 18.225 6.3C18 5.85 17.6625 5.2875 17.2125 4.8375V2.925C17.325 2.8125 17.325 2.5875 17.55 2.475ZM11.25 10.125C10.2375 9.1125 9.675 7.7625 9.675 6.3V4.5H11.475C12.9375 4.5 14.2875 5.0625 15.3 6.075C16.3125 7.0875 16.875 8.4375 16.875 9.9V10.125L14.2875 7.5375C14.175 7.425 14.0625 7.3125 13.95 7.3125C13.8375 7.2 13.6125 7.2 13.5 7.2C13.3875 7.2 13.1625 7.2 13.05 7.3125C12.9375 7.425 12.825 7.425 12.7125 7.5375C12.6 7.65 12.4875 7.7625 12.4875 7.875C12.4875 7.9875 12.375 8.2125 12.375 8.325C12.375 8.4375 12.375 8.6625 12.4875 8.775C12.6 8.8875 12.6 9 12.7125 9.1125L15.3 11.7H15.075C13.6125 11.7 12.2625 11.1375 11.25 10.125ZM17.325 13.95H18.675V16.65C18.225 16.5375 17.775 16.5375 17.325 16.65V13.95ZM14.7375 20.5875C14.9625 20.7 15.3 20.7 15.525 20.5875C15.75 20.475 15.975 20.25 16.0875 20.025C16.875 18.45 19.125 18.45 19.9125 20.025C20.025 20.25 20.25 20.475 20.475 20.5875C20.7 20.7 21.0375 20.7 21.2625 20.5875C21.6 20.475 22.05 20.3625 22.5 20.475L18 24.975L13.5 20.475C13.95 20.3625 14.2875 20.3625 14.7375 20.5875ZM10.125 32.4C9.3375 33.3 8.1 33.75 6.8625 33.75C6.3 33.75 5.625 33.6375 5.0625 33.4125C4.5 33.1875 3.9375 32.85 3.6 32.4C3.15 31.95 2.8125 31.5 2.5875 30.9375C2.3625 30.375 2.25 29.7 2.25 29.1375C2.25 27.9 2.7 26.775 3.6 25.875L9.675 19.8L16.2 26.325L10.125 32.4ZM33.4125 30.9375C33.1875 31.5 32.85 32.0625 32.4 32.4C31.95 32.85 31.5 33.1875 30.9375 33.4125C30.375 33.6375 29.8125 33.75 29.1375 33.75C28.4625 33.75 27.9 33.6375 27.3375 33.4125C26.775 33.1875 26.2125 32.85 25.875 32.4L19.8 26.325L26.325 19.8L32.4 25.875C32.85 26.325 33.1875 26.775 33.4125 27.3375C33.6375 27.9 33.75 28.4625 33.75 29.1375C33.75 29.8125 33.6375 30.375 33.4125 30.9375Z" fill="#2FDAA0"/>
</svg>
