<svg width="36" height="36" viewBox="0 0 36 36" fill="none" xmlns="http://www.w3.org/2000/svg">
<path d="M21.3896 2.79998C21.3896 2.39998 21.1902 1.89998 20.8911 1.59998C20.5921 1.29998 20.1933 1.09998 19.6948 1.09998H18.6979C18.0998 3.59998 16.6044 5.89998 14.6105 7.59998H21.3896V2.79998Z" fill="#D5F8EC"/>
<path d="M26.3742 24C26.5736 25.6 26.1748 27.2 25.1779 28.5C24.181 29.8 22.7853 30.7 21.1902 31V28.5C21.1902 27.7 21.3896 26.9 21.7884 26.2C22.1871 25.5 22.7853 24.9 23.4831 24.5V16.9H20.5921C20.3927 19.2 19.7945 21.4 18.997 23.6C19.0967 23.7 19.0967 23.7 19.1964 23.8C19.2961 25.2 18.997 26.6 18.2991 27.8C17.6013 29 16.6044 30 15.3084 30.7C15.109 30.6 14.9096 30.5 14.7102 30.4C14.0124 32.2 12.7164 33.8 11.221 34.9H21.589C22.0875 34.9 22.5859 34.7 22.9847 34.3C23.3834 33.9 23.5828 33.4 23.5828 32.9V31.4H23.9816C25.1779 31.4 26.2745 30.9 27.1718 30.1C27.9693 29.3 28.4678 28.1 28.4678 26.9V24H26.3742ZM20.5921 25.6C20.5921 25.7 20.6918 25.7 20.6918 25.8C20.6918 25.8 20.6918 25.8 20.6918 25.9C20.6918 25.8 20.6918 25.7 20.5921 25.6Z" fill="#D5F8EC"/>
<path d="M29.365 23.3C29.1657 23.1 28.8666 23 28.5675 23H25.7761C25.3773 23 24.8789 23.1 24.4801 23.2V14.5C24.4801 14 24.3804 13.6 24.181 13.1C23.9817 12.7 23.7823 12.3 23.3835 12L20.7915 9.7V7.9C20.8912 7.9 21.0906 7.8 21.0906 7.7C21.3897 7.5 21.4893 7.2 21.4893 7V2.6C21.4893 1.9 21.29 1.3 20.8912 0.8C20.4924 0.3 19.8943 0 19.3958 0H10.6229C10.1244 0 9.52627 0.3 9.1275 0.8C8.72873 1.2 8.52934 1.9 8.52934 2.6V7C8.52934 7.3 8.62904 7.5 8.82842 7.7C8.92811 7.8 9.0278 7.9 9.1275 7.9V9.6L6.5355 11.9C6.23642 12.2 5.93734 12.6 5.73796 13C5.63827 13.5 5.53857 13.9 5.53857 14.4V32.9C5.53857 33.7 5.83765 34.5 6.33611 35.1C6.83457 35.7 7.53242 36 8.23027 36H21.6887C22.3866 36 23.0844 35.7 23.5829 35.1C24.0813 34.5 24.3804 33.7 24.3804 32.9V32.5C25.6764 32.4 26.9724 31.8 27.9693 30.9C29.066 29.8 29.5644 28.4 29.5644 26.9V24C29.6641 23.7 29.5644 23.5 29.365 23.3ZM10.2241 2.6C10.2241 2.5 10.2241 2.3 10.3238 2.2C10.4235 2.1 10.5232 2.1 10.6229 2.1H11.5201V4.1C11.5201 4.3 11.6198 4.6 11.7195 4.7C11.8192 4.8 12.0186 5 12.218 5C12.4173 5 12.6167 4.9 12.7164 4.7C12.8161 4.5 12.9158 4.3 12.9158 4.1V2.1H14.5109V4.1C14.5109 4.3 14.6106 4.6 14.7103 4.7C14.81 4.8 15.0093 5 15.2087 5C15.4081 5 15.6075 4.9 15.7072 4.7C15.8069 4.5 15.9066 4.3 15.9066 4.1V2.1H17.5017V4.1C17.5017 4.3 17.6013 4.6 17.701 4.7C17.8007 4.8 18.0001 5 18.1995 5C18.3989 5 18.5983 4.9 18.698 4.7C18.7977 4.5 18.8973 4.3 18.8973 4.1V2.1H19.3958C19.4955 2.1 19.5952 2.2 19.6949 2.3C19.7946 2.4 19.7946 2.5 19.7946 2.7V6.1H10.2241V2.6ZM7.53242 14.4C7.53242 14.3 7.53242 14.1 7.63211 14C7.63211 13.9 7.7318 13.8 7.8315 13.7L10.7226 11C10.8223 10.9 10.922 10.8 11.0217 10.6C11.1213 10.4 11.1213 10.3 11.1213 10.1V8.3H18.8973V10.2C18.8973 10.4 18.8973 10.5 18.997 10.7C19.0967 10.9 19.1964 11 19.2961 11.1L22.1872 13.8C22.2869 13.9 22.3866 14 22.3866 14.1C22.3866 14.2 22.4863 14.3 22.4863 14.5V16H7.53242V14.4ZM7.53242 18H22.4863V24C22.2869 24.2 21.9878 24.4 21.7884 24.6C21.6887 24.7 21.589 24.8 21.4893 24.9C21.0906 24.2 20.6918 23.6 20.0937 23C18.698 21.6 16.7041 20.8 14.7103 20.8H11.7195C11.4204 20.8 11.1213 20.9 10.922 21.1C10.7226 21.3 10.6229 21.6 10.6229 21.9V24.9C10.6229 26.4 11.0217 27.8 11.8192 29H7.53242V18ZM20.1933 28.5L17.701 26.1C17.5017 25.9 17.2026 25.8 16.9035 25.8C16.6044 25.8 16.3053 25.9 16.106 26.1C15.9066 26.3 15.8069 26.6 15.8069 26.9C15.8069 27.2 15.9066 27.5 16.106 27.7L18.5983 30.2H18.3989C17.0032 30.2 15.6075 29.6 14.6106 28.6C13.6137 27.6 13.0155 26.2 13.0155 24.8V23H14.81C16.2057 23 17.6013 23.6 18.5983 24.6C19.5952 25.6 20.1933 27 20.1933 28.4V28.5ZM22.4863 32.9C22.4863 33.1 22.3866 33.3 22.2869 33.5C22.1872 33.7 21.9878 33.8 21.7884 33.8H8.23027C8.03088 33.8 7.8315 33.7 7.73181 33.5C7.63211 33.3 7.53242 33.1 7.53242 32.9V31H13.9127C15.2087 32 16.8038 32.5 18.3989 32.5H22.4863V32.9ZM27.4709 26.9C27.4709 27.8 27.0721 28.7 26.474 29.3C25.8758 29.9 24.9786 30.3 24.0813 30.3H23.9817L25.178 29.1C25.3773 28.9 25.477 28.6 25.477 28.3C25.477 28 25.3773 27.7 25.178 27.5C24.9786 27.3 24.6795 27.2 24.3804 27.2C24.0813 27.2 23.7823 27.3 23.5829 27.5L22.3866 28.7V28.6C22.3866 27.7 22.7853 26.8 23.3835 26.2C23.9817 25.6 24.8789 25.2 25.7761 25.2H27.4709V26.9Z" fill="#2FDAA0"/>
</svg>
