<svg width="16" height="16" viewBox="0 0 16 16" fill="none" xmlns="http://www.w3.org/2000/svg">
<path d="M6.12331 15.6979C5.64481 15.6979 5.19161 15.4746 4.90121 15.0896L0.970906 9.89648C0.849392 9.7361 0.76068 9.55335 0.70984 9.35867C0.658999 9.16398 0.647029 8.96119 0.674612 8.76187C0.702195 8.56256 0.76879 8.37064 0.870592 8.19708C0.972393 8.02352 1.1074 7.87173 1.26791 7.75038C1.42835 7.62853 1.61127 7.53953 1.80617 7.4885C2.00107 7.43747 2.20413 7.4254 2.4037 7.45299C2.60327 7.48059 2.79544 7.54729 2.96919 7.64929C3.14293 7.75128 3.29484 7.88657 3.41621 8.04738L6.00231 11.4618L12.5044 1.02058C12.72 0.675839 13.0636 0.430701 13.4598 0.338936C13.8559 0.24717 14.2723 0.316271 14.6175 0.53108C15.3358 0.97768 15.5569 1.92368 15.1081 2.64308L7.42571 14.9741C7.29456 15.1855 7.1138 15.3618 6.89911 15.4875C6.68441 15.6133 6.44227 15.6847 6.19371 15.6957C6.16951 15.6979 6.14751 15.6979 6.12331 15.6979Z" fill="#A1A7AE"/>
</svg>
