<svg width="32" height="32" viewBox="0 0 32 32" fill="none" xmlns="http://www.w3.org/2000/svg">
<g clip-path="url(#clip0_946_24089)">
<path d="M11.3 1C11.7 7 7.30002 12.3 1.40002 13C2.80002 15.6 7.40002 14.4 10.9 10.9C14.1 7.7 15.4 3.6 13.6 1.8C13 1.2 12.2 1 11.3 1Z" fill="#D5F8EC"/>
<path d="M26.6001 26.5L25.2001 27.3C25.0001 27.4 24.8001 27.6 24.6001 27.8C24.4001 28 24.3001 28.2 24.3001 28.5C24.2001 28.8 24.2001 29 24.2001 29.3C24.2001 29.6 24.3001 29.8 24.5001 30C24.6001 30.2 24.8001 30.4 25.0001 30.6C25.2001 30.8 25.4001 30.9 25.7001 30.9C26.0001 31 26.3001 31 26.5001 31C26.7001 31 27.0001 30.9 27.2001 30.7L28.6001 29.9L26.6001 26.5Z" fill="#D5F8EC"/>
<path d="M22.5 13.9C23.3 14.6 24 15.5 24.4 16.5C24.8 17.5 25.1 18.6 25.1 19.7C25.1 24.9 20 28.7 15 27.2C20.9 25.8 24.4 19.7 22.5 13.9Z" fill="#D5F8EC"/>
<path d="M2 26.8C2 27.3 2.2 27.9 2.6 28.2C3 28.6 3.5 28.8 4 28.8C4.5 28.8 5.1 28.6 5.4 28.2C5.8 27.8 6 27.3 6 26.8C6 25.7 4 23 4 23C4 23 2 25.6 2 26.8Z" fill="#D5F8EC"/>
<path d="M27.3 9.3C26.8 9.7 26.2 10 25.5 10C24.8 10 24.2 9.7 23.7 9.2C23.3 8.8 23 8.2 23 7.5C23 6.2 25.5 3 25.5 3C25.5 3 28 6.2 28 7.5C28 8.2 27.7 8.8 27.3 9.3Z" fill="#D5F8EC"/>
<path fill-rule="evenodd" clip-rule="evenodd" d="M15.1 6.09998C15.7 3.99998 15.4 2.29998 14.3 1.09998C13.2 -0.100017 11.4 -0.300017 9.29997 0.299983C6.09997 1.29998 3.79997 3.79998 3.79997 3.79998C2.09997 5.49998 0.899973 7.39998 0.299973 9.29998C-0.800027 13.1 1.19997 15.4 3.99997 15.4C8.19997 15.4 13.7 10.7 15.1 6.09998ZM5.49997 13.1C4.19997 13.5 3.09997 13.4 2.49997 12.8C1.39997 11.7 2.09997 8.69998 4.49997 5.89998L9.39997 10.8C8.09997 11.9 6.79997 12.7 5.49997 13.1ZM5.99997 4.49998C7.29997 3.39998 8.59997 2.59998 9.89997 2.19998C11.2 1.79998 12.3 1.89998 12.9 2.49998C14 3.59998 13.3 6.59998 10.9 9.39998L5.99997 4.49998Z" fill="#2FDAA0"/>
<path fill-rule="evenodd" clip-rule="evenodd" d="M24.8 15.2C23.3 12.6 20.5 10.9 17.3 10.9C12.4 10.9 8.5 14.9 8.5 19.7C8.5 21.4 9 22.9 9.8 24.2C10.5 25.4 11.6 26.5 12.8 27.2C14.1 28 15.7 28.5 17.3 28.5C22.2 28.5 26.1 24.5 26.1 19.7C26.1 18 25.6 16.5 24.8 15.2ZM10.9 22.1C10.8633 21.9533 10.8132 21.82 10.7644 21.6903C10.6802 21.4665 10.6 21.2533 10.6 21C10.3 19.7 10.5 18.3 11 17.1C11.5 15.9 12.4 14.8 13.5 14C14.6 13.2 15.9 12.9 17.3 12.9C18.1 12.9 19 13.1 19.8 13.4L10.9 22.1ZM12.4 24.5C12.3 24.4 12.225 24.3 12.15 24.2C12.075 24.1 12 24 11.9 23.9L21.5 14.3C21.6 14.4 21.7 14.475 21.8 14.55C21.9 14.625 22 14.7 22.1 14.8C22.2 14.9 22.275 15 22.35 15.1C22.425 15.2 22.5 15.3 22.6 15.4L13 25C12.9 24.9 12.8 24.825 12.7 24.75C12.6 24.675 12.5 24.6 12.4 24.5ZM22.9 23.5C22.2 24.6 21.1 25.5 19.8 26C18.6 26.5 17.2 26.7 15.9 26.4C15.5 26.3 15.1 26.2 14.8 26.1L23.6 17.3C23.9 18.1 24.1 18.9 24.1 19.8C24.1 21 23.7 22.4 22.9 23.5Z" fill="#2FDAA0"/>
<path fill-rule="evenodd" clip-rule="evenodd" d="M29.8 24.5C30.5 24.7 31.2 25.2 31.6 25.9C32 26.6 32.1 27.4 31.8 28.2C31.6 28.9 31.1 29.6 30.4 30C30.4164 30 30.4274 30 30.4287 30.0035C30.4312 30.0107 30.3927 30.0327 30.275 30.1C30.1 30.2 29.75 30.4 29.1 30.8C29.0442 30.8371 28.985 30.8778 28.9217 30.9212C28.6444 31.1115 28.2883 31.3558 27.8 31.6C27.3 31.9 26.8 32 26.3 32C25.7 32 25 31.8 24.5 31.4C24 31 23.6 30.4 23.4 29.8C23.2 29.2 23.2 28.5 23.5 27.9C23.8 27.2 24.2 26.7 24.8 26.4L27.5 24.8C28.2 24.4 29 24.3 29.8 24.5ZM26 29.9C26.3 30 26.5 30 26.8 29.9L27.3 29.5L26.3 27.7L25.8 28C25.5 28.1 25.4 28.3 25.3 28.6C25.2 28.9 25.3 29.2 25.4 29.4C25.5 29.7 25.7 29.8 26 29.9ZM29.5 28.3C29.8 28.2 29.9 28 30 27.7C30 27.4 30 27.1 29.9 26.9C29.8 26.6 29.6 26.5 29.3 26.4C29 26.3 28.7 26.4 28.5 26.5L28 26.8L29 28.6L29.5 28.3Z" fill="#2FDAA0"/>
<path fill-rule="evenodd" clip-rule="evenodd" d="M8.4 24C7.8 23 7.2 22.1 6.7 21.5C6.6 21.3 6.4 21.2 6.2 21.1C5.8 20.9 5.3 20.9 4.9 21.1C4.7 21.2 4.5 21.3 4.4 21.5C3.8 22.1 3.1 23 2.5 24C2.2 24.5 2 25 1.8 25.5C1.6 26 1.5 26.5 1.5 26.9C1.5 28 1.9 29 2.7 29.7C3.5 30.4 4.5 30.9 5.5 30.9C6 30.9 6.5 30.8 7 30.6C7.5 30.4 7.9 30.1 8.3 29.7C8.7 29.3 9 28.9 9.2 28.4C9.4 27.9 9.5 27.4 9.5 26.9C9.5 26.5 9.4 26 9.2 25.5C9 25 8.7 24.5 8.4 24ZM7.3 27.7C7.28074 27.7385 7.26148 27.7808 7.24151 27.8245C7.15778 28.0081 7.06148 28.2193 6.9 28.3C6.82554 28.3372 6.75109 28.3883 6.67147 28.443C6.53723 28.5351 6.38832 28.6372 6.2 28.7C5.5 29 4.6 28.8 4 28.3C3.6 27.9 3.4 27.4 3.4 26.9C3.4 26.9 3.4 26.7 3.6 26.2C3.68151 26.0778 3.76301 25.9223 3.85129 25.7539C3.97962 25.5091 4.12226 25.237 4.3 25C4.7 24.3 5.1 23.7 5.5 23.2C5.9 23.7 6.3 24.3 6.7 25C7 25.5 7.2 25.9 7.3 26.3C7.5 26.8 7.5 27 7.5 27C7.5 27.1464 7.44641 27.2928 7.37846 27.4785C7.35359 27.5464 7.32679 27.6196 7.3 27.7Z" fill="#2FDAA0"/>
<path fill-rule="evenodd" clip-rule="evenodd" d="M30.6 4.10001C31.1 4.80001 31.4 5.40001 31.6 6.00001C31.9 6.70001 32 7.30001 32 7.70001C32 8.40001 31.9 9.00001 31.6 9.60001C31.5534 9.67769 31.5068 9.75778 31.4594 9.83915C31.202 10.2816 30.9223 10.7622 30.5 11.1C30.1 11.5 29.5 11.8 28.9 12.1C28.3 12.4 27.7 12.5 27 12.5C25.7 12.5 24.4 12 23.5 11.1C22.5 10.2 22 9.00001 22 7.70001C22 7.30001 22.1 6.70001 22.3 6.00001C22.6 5.40001 22.9 4.80001 23.3 4.10001C24 2.90001 24.8 1.80001 25.4 1.10001C25.6 0.900012 25.8 0.700012 26.1 0.600012C26.6 0.400012 27.3 0.400012 27.8 0.600012C28.1 0.700012 28.3 0.900012 28.5 1.10001C28.6325 1.28556 28.7932 1.49921 28.9707 1.73538C29.4631 2.39019 30.0855 3.21809 30.6 4.10001ZM29.4222 9.40001C29.5778 9.20001 29.7333 9.00001 29.8 8.80001C29.8172 8.73138 29.8343 8.6657 29.851 8.60195C29.9314 8.29413 30 8.03138 30 7.70001C30 7.70001 30 7.40001 29.8 6.90001C29.6 6.40002 29.4 5.90001 29 5.30001C28.3436 4.17474 27.5113 3.1374 27.0804 2.60028C27.0518 2.56461 27.0249 2.53115 27 2.50001C26.6 3.00001 25.8 4.10001 25.1 5.20001C24.996 5.40803 24.892 5.60403 24.7921 5.79217C24.604 6.14671 24.4307 6.47336 24.3 6.80001C24 7.30001 24 7.60001 24 7.70001C24 8.50001 24.3 9.10001 24.9 9.70001C25.7 10.5 27.1 10.7 28.2 10.3C28.6 10.2 28.9 10 29.2 9.70001C29.2667 9.60001 29.3444 9.50001 29.4222 9.40001Z" fill="#2FDAA0"/>
</g>
<defs>
<clipPath id="clip0_946_24089">
<rect width="32" height="32" fill="white"/>
</clipPath>
</defs>
</svg>
