<svg width="12" height="12" viewBox="0 0 12 12" fill="none" xmlns="http://www.w3.org/2000/svg">
<path d="M0 2C0 0.895431 0.895431 0 2 0H10C11.1046 0 12 0.895431 12 2V10C12 11.1046 11.1046 12 10 12H2C0.895431 12 0 11.1046 0 10V2Z" fill="#A1A7AE"/>
<path d="M6.53063 6.00067L8.89006 3.64124C9.03665 3.49478 9.03665 3.25714 8.89006 3.11067C8.74347 2.96409 8.50608 2.96409 8.35949 3.11067L6.00006 5.4701L3.64051 3.11067C3.49392 2.96409 3.25653 2.96409 3.10994 3.11067C2.96335 3.25714 2.96335 3.49478 3.10994 3.64124L5.46949 6.00067L3.10994 8.3601C2.96335 8.50656 2.96335 8.7442 3.10994 8.89067C3.18324 8.96384 3.27929 9.00048 3.37523 9.00048C3.47116 9.00048 3.56722 8.96384 3.64051 8.89054L6.00006 6.53112L8.35949 8.89054C8.43278 8.96384 8.52884 9.00048 8.62477 9.00048C8.72071 9.00048 8.81676 8.96384 8.89006 8.89054C9.03665 8.74408 9.03665 8.50644 8.89006 8.35997L6.53063 6.00067Z" fill="white"/>
</svg>
