<svg width="36" height="36" viewBox="0 0 36 36" fill="none" xmlns="http://www.w3.org/2000/svg">
<g clip-path="url(#clip0_946_26953)">
<path d="M15.8 13.8V11.1C15.8 10.7 15.6 10.3 15.3 10C15 9.70001 14.6 9.50001 14.2 9.50001H13.3C12.9 11.1 12 12.5 10.8 13.7H15.8V13.8Z" fill="#D5F8EC"/>
<path d="M12.6 4.10001C12.6 3.60001 12.5 3.10001 12.2 2.70001C12 4.20001 11.4 5.60001 10.4 6.80001C9.39995 8.00001 8.09995 8.80001 6.69995 9.30001V9.70001H12.6V4.10001Z" fill="#D5F8EC"/>
<path d="M34.4 16.3C34.1 16 33.6999 15.8 33.2999 15.8H32.4C32 17.4 31.1 18.8 29.9 20H34.7999V17.3C34.8999 17 34.7 16.6 34.4 16.3Z" fill="#D5F8EC"/>
<path d="M31.7 10.4C31.7 9.90001 31.5999 9.40001 31.2999 9.00001C31.0999 10.5 30.5 11.9 29.5 13.1C28.5 14.3 27.1999 15.1 25.7999 15.6V16H31.7V10.4Z" fill="#D5F8EC"/>
<path d="M10.7 30.2H14.8C13.2 32.2 11.1 33.8 8.79995 34.9H15.9C16.5 34.9 17.1 34.7 17.5 34.2C17.9 33.8 18.2 33.2 18.2 32.6V21C17.9 23 17 25 15.7 26.6C14.3 28.2 12.6 29.5 10.7 30.2Z" fill="#D5F8EC"/>
<path d="M10.4 26.4C10.7 26.7 11.2 26.9 11.7 26.9C12.2 26.9 12.6 26.7 13 26.4C13.3 26.1 13.5 25.6 13.5 25.1C13.5 24.1 11.7 21.7 11.7 21.7C11.7 21.7 9.89995 24.1 9.89995 25.1C9.79995 25.6 9.99995 26.1 10.4 26.4Z" fill="#D5F8EC"/>
<path d="M26.9 31.6C27 31.8 27.2 32 27.3 32.2V33.4C27.3 33.8 27.5 34.2 27.7 34.4C28 34.7 28.4 34.8 28.7 34.8C29 34.8 29.5 34.6 29.7 34.4C30 34.1 30.1 33.7 30.1 33.4V32.2C30.6 31.7 30.8 31.1 30.8 30.5V27.7C30 29.4 28.6 30.8 26.9 31.6Z" fill="#D5F8EC"/>
<path d="M16.9 12.8V11.1C16.9 10.4 16.6 9.7 16.1 9.2C15.6 8.7 14.9 8.4 14.2 8.4H13.7V4.1C13.7 3 13.3 2 12.5 1.2C11.8 0.4 10.7 0 9.6 0C8.5 0 7.5 0.4 6.7 1.2C6 2 5.6 3 5.6 4.1V8.5H5.1C4.4 8.5 3.7 8.8 3.2 9.3C2.7 9.8 2.4 10.5 2.4 11.2V12.9C1.9 13.1 1.4 13.3 1 13.7C0.4 14.3 0 15.2 0 16.1V32.7C0 33.6 0.4 34.5 1 35.1C1.6 35.7 2.5 36.1 3.4 36.1H15.9C16.8 36.1 17.7 35.7 18.3 35.1C18.9 34.5 19.3 33.6 19.3 32.7V16C19.3 15.1 18.9 14.2 18.3 13.6C17.9 13.3 17.4 13 16.9 12.8ZM7.8 4.1C7.8 3.6 8 3.2 8.3 2.8C8.6 2.5 9.1 2.3 9.6 2.3C10.1 2.3 10.5 2.5 10.9 2.8C11.2 3.1 11.4 3.6 11.4 4.1V8.5H7.8V4.1ZM4.6 11.1C4.6 11 4.6 10.9 4.7 10.8C4.8 10.7 4.9 10.7 5 10.7H14.1C14.2 10.7 14.3 10.7 14.4 10.8C14.5 10.9 14.5 11 14.5 11.1V12.6H4.5V11.1H4.6ZM17 29H6.3V19.6H17V29ZM17 17.4H5.2C4.9 17.4 4.6 17.5 4.4 17.7C4.2 17.9 4.1 18.2 4.1 18.5V30.2C4.1 30.5 4.2 30.8 4.4 31C4.6 31.2 4.9 31.3 5.2 31.3H17V32.6C17 32.9 16.9 33.2 16.7 33.4C16.5 33.6 16.2 33.7 15.9 33.7H3.4C3.1 33.7 2.8 33.6 2.6 33.4C2.4 33.2 2.3 32.9 2.3 32.6V16C2.3 15.7 2.4 15.4 2.6 15.2C2.8 15 3.1 14.9 3.4 14.9H15.8C16.1 14.9 16.4 15 16.6 15.2C16.8 15.4 16.9 15.7 16.9 16V17.4H17Z" fill="#2FDAA0"/>
<path d="M35.2 15.5C34.7 15 34 14.7 33.3 14.7H32.8V10.3C32.8 9.2 32.4 8.2 31.6 7.4C30.8 6.6 29.8 6.2 28.7 6.2C27.6 6.2 26.6 6.6 25.8 7.4C25 8.2 24.6 9.2 24.6 10.3V14.7H24.1C23.4 14.7 22.7 15 22.2 15.5C21.7 16 21.4 16.7 21.4 17.4V20.1C21.4 20.4 21.5 20.7 21.7 20.9C21.9 21.1 22.2 21.2 22.5 21.2H25.3V30.5C25.3 31.3 25.5 32 26 32.6V33.4C26 34.1 26.3 34.8 26.8 35.2C27.3 35.7 27.9 36 28.6 36C29.3 36 30 35.7 30.4 35.2C30.8 34.7 31.2 34.1 31.2 33.4V32.6C31.7 32 31.9 31.2 31.9 30.5V21.2H34.7C35 21.2 35.3 21.1 35.5 20.9C35.7 20.7 35.8 20.4 35.8 20.1V17.4C36 16.7 35.7 16 35.2 15.5ZM26.9 10.4C26.9 9.9 27.1 9.5 27.4 9.1C27.7 8.8 28.2 8.6 28.7 8.6C29.2 8.6 29.6 8.8 30 9.1C30.3 9.4 30.5 9.9 30.5 10.4V14.8H26.8V10.4H26.9ZM29.8 30.5C29.8 30.7 29.8 30.8 29.7 31C29.6 31.2 29.5 31.3 29.4 31.4C29.2 31.6 29.1 31.9 29.1 32.2V33.4C29.1 33.5 29.1 33.6 29 33.6C28.9 33.7 28.8 33.7 28.8 33.7C28.7 33.7 28.6 33.7 28.6 33.6C28.5 33.5 28.5 33.4 28.5 33.4V32.2C28.5 31.9 28.4 31.6 28.2 31.4C28.1 31.3 28 31.1 27.9 31C27.8 30.8 27.8 30.7 27.8 30.5V26.9H29.9V30.5H29.8ZM29.8 24.7H27.7V21.3H29.8V24.7ZM33.8 19H23.8V17.5C23.8 17.4 23.8 17.3 23.9 17.2C24 17.1 24.1 17.1 24.2 17.1H33.3C33.4 17.1 33.5 17.1 33.6 17.2C33.7 17.3 33.7 17.4 33.7 17.5V19H33.8Z" fill="#2FDAA0"/>
<path d="M11.7 28.1C12.1 28.1 12.5 28 12.8 27.9C13.2 27.8 13.5 27.5 13.8 27.3C14.1 27 14.3 26.7 14.4 26.3C14.5 25.9 14.6 25.6 14.6 25.2C14.6 23.9 13.2 21.9 12.5 21.1C12.4 21 12.3 20.9 12.1 20.8C11.9 20.7 11.8 20.7 11.6 20.7C11.4 20.7 11.3 20.7 11.1 20.8C10.9 20.9 10.8 21 10.7 21.1C10.1 21.9 8.6 23.9 8.6 25.2C8.6 26 8.9 26.7 9.5 27.3C10.1 27.7 10.9 28.1 11.7 28.1ZM11.7 23.7C12.1 24.3 12.4 24.9 12.4 25.1C12.4 25.3 12.3 25.5 12.2 25.6C12.1 25.7 11.9 25.8 11.7 25.8C11.5 25.8 11.3 25.7 11.2 25.6C11 25.5 11 25.3 11 25.1C11 24.9 11.3 24.3 11.7 23.7Z" fill="#2FDAA0"/>
</g>
<defs>
<clipPath id="clip0_946_26953">
<rect width="36" height="36" fill="white"/>
</clipPath>
</defs>
</svg>
