<svg width="20" height="20" viewBox="0 0 20 20" fill="none" xmlns="http://www.w3.org/2000/svg">
<path d="M3.63083 13.1138C4.78477 14.2694 6.32147 14.9631 7.95141 15.0642C9.58135 15.1654 11.192 14.667 12.48 13.663L16.9117 18.0946C17.0688 18.2464 17.2793 18.3304 17.4978 18.3285C17.7163 18.3266 17.9253 18.239 18.0798 18.0845C18.2343 17.93 18.322 17.721 18.3239 17.5025C18.3258 17.284 18.2418 17.0735 18.09 16.9163L13.6583 12.4846C14.7069 11.1389 15.2027 9.44392 15.0445 7.74527C14.8863 6.04662 14.0861 4.47229 12.8071 3.34335C11.528 2.21441 9.86652 1.61589 8.16138 1.66986C6.45624 1.72383 4.8359 2.42623 3.63083 3.6338C3.00816 4.25615 2.51421 4.99509 2.17721 5.80839C1.8402 6.6217 1.66675 7.49343 1.66675 8.3738C1.66675 9.25416 1.8402 10.1259 2.17721 10.9392C2.51421 11.7525 3.00816 12.4914 3.63083 13.1138V13.1138ZM4.80916 4.8138C5.63297 3.99 6.71693 3.47733 7.87635 3.36313C9.03577 3.24892 10.1989 3.54025 11.1676 4.18748C12.1363 4.83471 12.8507 5.79779 13.1889 6.91264C13.5272 8.02749 13.4684 9.22513 13.0226 10.3015C12.5769 11.3779 11.7717 12.2664 10.7443 12.8157C9.71685 13.365 8.53077 13.541 7.38809 13.3139C6.24542 13.0867 5.21686 12.4704 4.47766 11.5699C3.73845 10.6694 3.33434 9.5405 3.33416 8.37546C3.33187 7.71344 3.46108 7.05756 3.71428 6.44586C3.96749 5.83417 4.33964 5.27885 4.80916 4.81213V4.8138Z" fill="#A1A7AE"/>
</svg>
