<svg width="23" height="18" viewBox="0 0 23 18" fill="none" xmlns="http://www.w3.org/2000/svg">
<g clip-path="url(#clip0_946_31051)">
<path d="M10.5651 10.968L10.3656 7.98604C10.3266 7.38604 10.1219 6.41629 10.5801 5.92879C10.9289 5.55379 11.7546 5.48929 12.0051 6.00904C12.2181 6.61979 12.2652 7.27614 12.1416 7.91104L11.8746 10.9808C11.8631 11.2697 11.7999 11.5542 11.6879 11.8208C11.6438 11.9071 11.5769 11.9796 11.4945 12.0306C11.4122 12.0816 11.3174 12.1091 11.2206 12.1101C11.1237 12.1111 11.0284 12.0856 10.945 12.0363C10.8616 11.987 10.7932 11.9159 10.7474 11.8305C10.6418 11.5544 10.5803 11.2633 10.5651 10.968ZM11.2559 15.0653C11.0194 15.064 10.7922 14.9726 10.6207 14.8097C10.4492 14.6469 10.3462 14.4248 10.3326 14.1887C10.3191 13.9525 10.396 13.7201 10.5477 13.5387C10.6994 13.3573 10.9146 13.2405 11.1494 13.212C11.2755 13.1968 11.4034 13.2075 11.5253 13.2436C11.6471 13.2797 11.7602 13.3404 11.8577 13.4219C11.9552 13.5034 12.0349 13.604 12.092 13.7176C12.1491 13.8311 12.1823 13.9551 12.1896 14.082C12.1968 14.2088 12.1781 14.3358 12.1344 14.4551C12.0907 14.5744 12.023 14.6835 11.9355 14.7757C11.848 14.8678 11.7426 14.9411 11.6257 14.9909C11.5088 15.0407 11.3829 15.066 11.2559 15.0653Z" fill="#D9534F"/>
<path d="M19.6447 18H2.85519C2.46073 17.9939 2.07465 17.8852 1.73502 17.6845C1.39538 17.4837 1.11392 17.198 0.918378 16.8553C0.722831 16.5127 0.619949 16.125 0.619873 15.7305C0.619797 15.336 0.722529 14.9482 0.917943 14.6055L9.32244 1.13327C9.52662 0.80508 9.8112 0.534453 10.1492 0.347027C10.4873 0.159601 10.8676 0.0615833 11.2541 0.0622593C11.6406 0.0629353 12.0205 0.162283 12.3579 0.35089C12.6953 0.539497 12.9789 0.811118 13.1819 1.14002L21.5729 14.5898C21.7716 14.9323 21.8773 15.3208 21.8795 15.7168C21.8817 16.1127 21.7803 16.5024 21.5854 16.8471C21.3905 17.1918 21.1089 17.4795 20.7684 17.6818C20.428 17.884 20.0406 17.9937 19.6447 18ZM10.6042 1.91177L2.20044 15.384C2.13847 15.4984 2.10708 15.6269 2.1093 15.757C2.11152 15.8871 2.14729 16.0144 2.21313 16.1266C2.27897 16.2389 2.37267 16.3322 2.48515 16.3976C2.59763 16.463 2.72509 16.4983 2.85519 16.5H19.6447C19.7762 16.498 19.9049 16.4618 20.0182 16.3948C20.1314 16.3279 20.2253 16.2326 20.2905 16.1184C20.3557 16.0041 20.3899 15.8749 20.3899 15.7433C20.3899 15.6118 20.3556 15.4825 20.2904 15.3683C20.2904 15.3683 11.8994 1.91627 11.8957 1.91177C11.8266 1.80304 11.7312 1.71351 11.6184 1.65148C11.5055 1.58945 11.3787 1.55693 11.2499 1.55693C11.1211 1.55693 10.9944 1.58945 10.8815 1.65148C10.7686 1.71351 10.6733 1.80304 10.6042 1.91177Z" fill="#D9534F"/>
</g>
<defs>
<clipPath id="clip0_946_31051">
<rect width="22.5" height="18" fill="white"/>
</clipPath>
</defs>
</svg>
